<svg xmlns="http://www.w3.org/2000/svg" width="275.475" height="88.082" viewBox="0 0 275.475 88.082"><defs><style>.a{fill:#fff;}</style></defs><g transform="translate(0)"><path d="M372.116,1012a12.042,12.042,0,0,1-12.175,11.9H108.819A12.044,12.044,0,0,1,96.641,1012V947.728a12.044,12.044,0,0,1,12.178-11.9H359.942a12.042,12.042,0,0,1,12.175,11.9Z" transform="translate(-96.641 -935.825)"/><g transform="translate(18.479 13.693)"><path class="a" d="M184.995,1020.2a43.293,43.293,0,0,1-4.034,7.362c-2.621,3.9-6.313,8.754-10.887,8.795-4.066.037-5.11-2.587-10.628-2.557s-6.669,2.6-10.736,2.567c-4.575-.041-8.074-4.426-10.694-8.324-7.326-10.9-8.091-23.695-3.574-30.5,3.211-4.833,8.276-7.662,13.039-7.662,4.849,0,7.9,2.6,11.908,2.6,3.889,0,6.26-2.6,11.866-2.6a15.938,15.938,0,0,1,11.928,6.156C172.7,1001.656,174.4,1016.292,184.995,1020.2Z" transform="translate(-131.637 -975.676)"/><g transform="translate(25.646 0)"><path class="a" d="M189.926,972.209a13.1,13.1,0,0,0,3.022-9.854,14.809,14.809,0,0,0-9.493,4.991c-2.062,2.45-3.765,6.083-3.1,9.612A12.507,12.507,0,0,0,189.926,972.209Z" transform="translate(-180.207 -962.355)"/></g></g><g transform="translate(83.661 13.823)"><g transform="translate(0 21.1)"><path class="a" d="M265.576,1004.42l-10.494,30.2h4.806l3.133-9.271h10.161l3.222,9.271h4.939l-10.54-30.2Zm2.49,4.965c.354,1.347.737,2.747,1.228,4.26l2.828,8.006h-8.049l2.789-8.059C267.287,1012.286,267.691,1010.875,268.067,1009.385Z" transform="translate(-255.082 -1003.939)"/><path class="a" d="M319.906,1019.586a8.818,8.818,0,0,0-7.43,3.484l-.186-3h-4.275l.025.384c.126,1.871.178,3.93.178,6.887v23.274h4.674v-10.862a8.294,8.294,0,0,0,6.389,2.684,9.745,9.745,0,0,0,7.082-2.943,12.311,12.311,0,0,0,3.127-8.787,11.978,11.978,0,0,0-2.715-8.024A8.979,8.979,0,0,0,319.906,1019.586Zm-1.164,3.782c4.167,0,6.031,3.773,6.031,7.512,0,4.821-2.379,7.817-6.209,7.817a5.643,5.643,0,0,1-5.506-4.24,5.707,5.707,0,0,1-.166-1.479V1029.3a6.724,6.724,0,0,1,.148-1.127c.023-.125.049-.25.067-.371A5.891,5.891,0,0,1,318.741,1023.368Z" transform="translate(-280.065 -1011.277)"/><path class="a" d="M365.487,1019.586a8.822,8.822,0,0,0-7.431,3.484l-.186-3H353.6l.024.384c.127,1.873.18,3.93.18,6.887v23.274h4.674v-10.862a8.29,8.29,0,0,0,6.387,2.684,9.759,9.759,0,0,0,7.086-2.943,12.327,12.327,0,0,0,3.125-8.787,11.98,11.98,0,0,0-2.717-8.024A8.975,8.975,0,0,0,365.487,1019.586Zm-1.163,3.782c4.164,0,6.029,3.773,6.029,7.512,0,4.821-2.381,7.817-6.208,7.817a5.642,5.642,0,0,1-5.506-4.24,5.706,5.706,0,0,1-.165-1.479V1029.3a6.651,6.651,0,0,1,.149-1.131c.023-.123.047-.246.068-.367A5.887,5.887,0,0,1,364.323,1023.368Z" transform="translate(-301.578 -1011.277)"/><path class="a" d="M423.272,1016.764c-4.362-1.651-5.76-2.95-5.76-5.349,0-2.02,1.642-4.058,5.313-4.058a10.8,10.8,0,0,1,5.487,1.347l.4.239,1.319-3.813-.261-.149a13.79,13.79,0,0,0-6.806-1.493c-5.96,0-10.123,3.439-10.123,8.362,0,3.971,2.607,6.746,8.2,8.735,3.967,1.449,5.443,2.934,5.443,5.479,0,2.881-2.278,4.668-5.941,4.668a13.012,13.012,0,0,1-6.737-1.867l-.406-.253-1.255,3.9.231.149a16.3,16.3,0,0,0,7.9,1.985c8.033,0,10.881-4.788,10.881-8.887C431.156,1021.53,428.872,1018.924,423.272,1016.764Z" transform="translate(-329.212 -1003.488)"/><path class="a" d="M456.985,1010.439l-4.584,1.407v3.8h-3.355v3.651H452.4v11.184c0,2.7.529,4.6,1.619,5.8a6.064,6.064,0,0,0,4.522,1.735,11.253,11.253,0,0,0,3.613-.545l.262-.091-.224-3.658-.448.135a7.185,7.185,0,0,1-2.174.246c-1.811,0-2.585-1.12-2.585-3.75v-11.053h5.638v-3.651h-5.638Z" transform="translate(-346.628 -1006.851)"/><path class="a" d="M486.768,1019.586c-6.54,0-11.106,4.771-11.106,11.6,0,6.624,4.419,11.249,10.749,11.249h.043c5.35,0,11.106-3.643,11.106-11.643a11.39,11.39,0,0,0-2.979-8.081A10.522,10.522,0,0,0,486.768,1019.586Zm-.135,3.606c4.2,0,6.119,4.007,6.119,7.731,0,4.58-2.612,7.9-6.207,7.9H486.5c-3.544,0-6.117-3.269-6.117-7.771C480.381,1027.143,482.315,1023.193,486.633,1023.193Z" transform="translate(-359.19 -1011.277)"/><path class="a" d="M533.845,1019.8l-.28-.07a4.623,4.623,0,0,0-1.162-.142,6.68,6.68,0,0,0-5.86,3.678l-.137-3.2h-4.194l.027.384c.125,1.809.176,3.839.176,6.579l-.043,14.924h4.673v-11.644a11.536,11.536,0,0,1,.129-1.771c.527-2.8,2.458-4.6,4.918-4.6a12.2,12.2,0,0,1,1.254.076l.5.051Z" transform="translate(-381.16 -1011.277)"/><path class="a" d="M554.7,1019.5c-6.222,0-10.567,4.859-10.567,11.817,0,6.7,4.323,11.032,11.015,11.032a18.272,18.272,0,0,0,7.4-1.388l.281-.124-.9-3.4-.39.154a14.776,14.776,0,0,1-5.856,1.024c-2.031,0-6.714-.654-7-6.624l15.086.044.06-.292a9.921,9.921,0,0,0,.141-1.906C563.97,1025.067,561.542,1019.5,554.7,1019.5Zm-.311,3.475a4.671,4.671,0,0,1,3.431,1.28,6.413,6.413,0,0,1,1.61,4.253h-10.66C549.2,1025.872,550.891,1022.978,554.387,1022.978Z" transform="translate(-391.506 -1011.237)"/></g><g transform="translate(0 0)"><path class="a" d="M255.082,964.177a34.9,34.9,0,0,1,4.483-.3c3.013,0,5.159.594,6.581,1.76a6.2,6.2,0,0,1,2.314,5.152,7.155,7.155,0,0,1-2.338,5.555c-1.543,1.336-4.05,2.057-7.207,2.057a33.161,33.161,0,0,1-3.833-.17Zm2.122,12.658a15.379,15.379,0,0,0,2.121.085c4.483.02,6.917-2.205,6.917-6.064.024-3.415-2.145-5.514-6.58-5.514a13.618,13.618,0,0,0-2.458.191Z" transform="translate(-255.082 -963.224)"/><path class="a" d="M289.656,982.169c-3.134,0-5.592-2.036-5.592-5.279,0-3.435,2.579-5.449,5.784-5.449,3.351,0,5.616,2.141,5.616,5.258,0,3.816-3.012,5.47-5.784,5.47Zm.072-1.4c2.024,0,3.544-1.675,3.544-4.008,0-1.739-.989-3.923-3.5-3.923-2.483,0-3.568,2.036-3.568,3.987,0,2.247,1.446,3.944,3.5,3.944Z" transform="translate(-268.761 -966.881)"/><path class="a" d="M310.07,971.891l1.567,5.2c.313,1.145.627,2.226.843,3.286h.072c.265-1.04.65-2.142,1.037-3.265l1.9-5.217h1.784l1.808,5.131c.433,1.209.771,2.311,1.036,3.351h.072a27.852,27.852,0,0,1,.892-3.329l1.662-5.153h2.1l-3.76,10.262h-1.928l-1.783-4.9a33.056,33.056,0,0,1-1.038-3.393h-.047a27.727,27.727,0,0,1-1.061,3.414l-1.879,4.876H311.42l-3.52-10.262Z" transform="translate(-280.011 -967.099)"/><path class="a" d="M343.925,974.45c0-1.081-.024-1.929-.1-2.778h1.881l.12,1.676h.049a4.446,4.446,0,0,1,3.856-1.908c1.615,0,4.121.847,4.121,4.367v6.128h-2.119v-5.916c0-1.654-.7-3.053-2.7-3.053a3.023,3.023,0,0,0-2.844,1.908,2.463,2.463,0,0,0-.145.869v6.191h-2.121Z" transform="translate(-296.968 -966.881)"/><path class="a" d="M369.346,962.607h2.121v15.054h-2.121Z" transform="translate(-309.012 -962.607)"/><path class="a" d="M384.023,982.169c-3.133,0-5.591-2.036-5.591-5.279,0-3.435,2.577-5.449,5.784-5.449,3.349,0,5.615,2.141,5.615,5.258,0,3.816-3.013,5.47-5.785,5.47Zm.071-1.4c2.025,0,3.544-1.675,3.544-4.008,0-1.739-.988-3.923-3.494-3.923-2.483,0-3.568,2.036-3.568,3.987,0,2.247,1.446,3.944,3.5,3.944Z" transform="translate(-313.3 -966.881)"/><path class="a" d="M412.491,979.476a15.106,15.106,0,0,0,.17,2.459h-1.905l-.193-1.292h-.071a4.528,4.528,0,0,1-3.567,1.526c-2.361,0-3.567-1.463-3.567-2.948,0-2.48,2.506-3.838,7.013-3.817v-.212c0-.848-.264-2.4-2.651-2.375a6.2,6.2,0,0,0-3.061.763l-.483-1.251a8.369,8.369,0,0,1,3.857-.89c3.591,0,4.458,2.141,4.458,4.2Zm-2.072-2.778c-2.314-.042-4.941.318-4.941,2.311a1.758,1.758,0,0,0,1.976,1.781,2.944,2.944,0,0,0,2.868-1.718,1.68,1.68,0,0,0,.1-.594Z" transform="translate(-325.064 -966.881)"/><path class="a" d="M436.414,962.607v12.4c0,.912.026,1.95.1,2.65h-1.9l-.1-1.781h-.049a4.391,4.391,0,0,1-3.953,2.015,4.945,4.945,0,0,1-5.014-5.217,5.169,5.169,0,0,1,5.23-5.512,4.045,4.045,0,0,1,3.52,1.548h.047v-6.107Zm-2.121,8.969a2.9,2.9,0,0,0-3.157-2.947c-2.194,0-3.5,1.7-3.5,3.944,0,2.1,1.182,3.816,3.447,3.816a3.15,3.15,0,0,0,3.109-2.226,2.845,2.845,0,0,0,.1-.806Z" transform="translate(-335.513 -962.607)"/><path class="a" d="M466.512,982.169c-3.133,0-5.592-2.036-5.592-5.279,0-3.435,2.58-5.449,5.785-5.449,3.352,0,5.617,2.141,5.617,5.258,0,3.816-3.014,5.47-5.784,5.47Zm.073-1.4c2.025,0,3.542-1.675,3.542-4.008,0-1.739-.987-3.923-3.494-3.923-2.483,0-3.568,2.036-3.568,3.987,0,2.247,1.446,3.944,3.495,3.944Z" transform="translate(-352.232 -966.881)"/><path class="a" d="M487.5,974.45c0-1.081-.025-1.929-.1-2.778h1.88l.121,1.676h.048a4.446,4.446,0,0,1,3.856-1.908c1.615,0,4.122.847,4.122,4.367v6.128H495.3v-5.916c0-1.654-.7-3.053-2.7-3.053a3.027,3.027,0,0,0-2.844,1.908,2.473,2.473,0,0,0-.144.869v6.191H487.5Z" transform="translate(-364.73 -966.881)"/><path class="a" d="M523.965,967.127v2.459H527v1.42h-3.036v5.534c0,1.272.41,1.993,1.591,1.993a4.468,4.468,0,0,0,1.229-.127l.1,1.42a6.509,6.509,0,0,1-1.88.255,3.257,3.257,0,0,1-2.29-.784,3.67,3.67,0,0,1-.819-2.694v-5.6h-1.808v-1.42h1.808V967.7Z" transform="translate(-380.156 -964.794)"/><path class="a" d="M537.7,962.607h2.12v6.4h.049a3.572,3.572,0,0,1,1.519-1.314,4.557,4.557,0,0,1,2.169-.53c1.566,0,4.073.847,4.073,4.388v6.106h-2.121v-5.895c0-1.675-.7-3.053-2.7-3.053a3.048,3.048,0,0,0-2.845,1.865,2.016,2.016,0,0,0-.145.891v6.191H537.7Z" transform="translate(-388.473 -962.607)"/><path class="a" d="M563.491,977.1c.05,2.523,1.858,3.563,3.978,3.563a9.029,9.029,0,0,0,3.231-.51l.386,1.314a10.642,10.642,0,0,1-3.906.658c-3.568,0-5.737-2.1-5.737-5.174a5.281,5.281,0,0,1,5.495-5.555,4.533,4.533,0,0,1,4.8,4.835,4.22,4.22,0,0,1-.071.89Zm6.2-1.336a2.777,2.777,0,0,0-2.918-3.032,3.266,3.266,0,0,0-3.254,3.032Z" transform="translate(-399.677 -966.861)"/></g></g></g></svg>