<?xml version="1.0" encoding="utf-8"?>
<!-- Generator: Adobe Illustrator 27.5.0, SVG Export Plug-In . SVG Version: 6.00 Build 0)  -->
<svg version="1.1" xmlns="http://www.w3.org/2000/svg" xmlns:xlink="http://www.w3.org/1999/xlink" x="0px" y="0px"
	 viewBox="0 0 500 500" style="enable-background:new 0 0 500 500;" xml:space="preserve">
<g id="BACKGROUND">
	<rect x="0.962" y="0" style="fill:#FFFFFF;" width="500" height="500"/>
</g>
<g id="OBJECTS">
	<g>
		<g>
			<path style="fill:#F8F7F5;" d="M171.259,413.547c0,0-22.122-22.393-48.491-26.736c-26.368-4.343-74.034-44.403-51.215-92.576
				c22.819-48.173,60.343-62.54,29.411-106.065S90.224,15.845,187.123,50.327c96.899,34.482,123.775,77.077,163.327,53.244
				s117.137-7.606,110.037,53.751c-7.099,61.357-34.482,90.661-18.762,128.746c15.72,38.085-4.057,79.265-38.539,92.65
				c-34.482,13.385-42.088,53.672-90.261,49.248S209.644,460.559,171.259,413.547z"/>
			<g>
				<defs>
					<path id="SVGID_1_" d="M171.259,413.547c0,0-22.122-22.393-48.491-26.736c-26.368-4.343-74.034-44.403-51.215-92.576
						c22.819-48.173,60.343-62.54,29.411-106.065S90.224,15.845,187.123,50.327c96.899,34.482,123.775,77.077,163.327,53.244
						s117.137-7.606,110.037,53.751c-7.099,61.357-34.482,90.661-18.762,128.746c15.72,38.085-4.057,79.265-38.539,92.65
						c-34.482,13.385-42.088,53.672-90.261,49.248S209.644,460.559,171.259,413.547z"/>
				</defs>
				<clipPath id="SVGID_00000070818400974110036300000011679129908574635156_">
					<use xlink:href="#SVGID_1_"  style="overflow:visible;"/>
				</clipPath>
				<g style="clip-path:url(#SVGID_00000070818400974110036300000011679129908574635156_);">
					<g>
						<g>
							<rect x="265.549" y="66.047" style="fill:#D2D2F1;" width="70.196" height="118.476"/>
							<rect x="272.141" y="73.116" style="fill:#F8F7F5;" width="57.011" height="105.04"/>
						</g>
						<g>
							<rect x="60.364" y="94.268" style="fill:#D2D2F1;" width="140.702" height="133.34"/>
							<rect x="69.334" y="102.769" style="fill:#F8F7F5;" width="122.762" height="116.338"/>
						</g>
					</g>
					<rect x="64.927" y="347.108" style="fill:#D5BEB6;" width="384.066" height="97.831"/>
					<g>
						<path style="fill:#FFFFFF;" d="M380.394,169.295c3.914,2.399,8.203,3.709,12.788,4.033c0.149,0.011,0.295,0.062,0.442,0.094
							c1.145,0,2.29,0,3.435,0c1.111-0.15,2.229-0.261,3.331-0.456c6.654-1.178,12.247-4.305,16.76-9.313
							c4.251-4.718,6.66-10.281,7.362-16.589c0.046-0.412,0.093-0.824,0.14-1.236c0-1.145,0-2.29,0-3.435
							c-0.15-1.109-0.251-2.227-0.456-3.326c-1.64-8.778-6.314-15.486-13.907-20.141c-3.914-2.399-8.203-3.709-12.788-4.033
							c-0.149-0.011-0.295-0.062-0.442-0.094c-1.145,0-2.29,0-3.435,0c-1.111,0.15-2.229,0.261-3.331,0.456
							c-6.654,1.178-12.247,4.305-16.76,9.313c-4.251,4.718-6.66,10.282-7.362,16.589c-0.046,0.412-0.094,0.824-0.14,1.236
							c0,1.145,0,2.29,0,3.435c0.15,1.109,0.251,2.227,0.457,3.326C368.126,157.933,372.801,164.641,380.394,169.295z
							 M395.364,119.353c13.674,0.029,24.747,11.115,24.736,24.767c-0.01,13.665-11.089,24.742-24.752,24.751
							c-13.668,0.009-24.813-11.15-24.765-24.795C370.631,130.396,381.73,119.324,395.364,119.353z"/>
						<path style="fill:#FFFFFF;" d="M394.348,146.4c2.113,1.537,4.188,3.126,6.278,4.693c0.824,0.618,1.632,1.26,2.478,1.844
							c1.344,0.928,3.112,0.283,3.505-1.277c0.263-1.043-0.137-1.859-0.981-2.491c-2.428-1.817-4.84-3.654-7.286-5.447
							c-0.526-0.385-0.747-0.769-0.74-1.444c0.04-3.777,0.021-7.555,0.018-11.333c-0.001-1.179-0.514-2.015-1.441-2.38
							c-1.526-0.601-3.09,0.492-3.11,2.212c-0.025,2.232-0.006,4.464-0.007,6.697c0,2.118,0.023,4.236-0.01,6.353
							C393.036,144.936,393.447,145.745,394.348,146.4z"/>
					</g>
					<g>
						<path style="fill:#CB8056;" d="M452.852,333.168H55.578c-3.984,0-7.214-3.23-7.214-7.214v-0.204
							c0-3.984,3.23-7.214,7.214-7.214h397.275c3.984,0,7.214,3.23,7.214,7.214v0.204
							C460.066,329.939,456.836,333.168,452.852,333.168z"/>
						<g>
							<path style="fill:#A99068;" d="M454.891,246.768h-78.296c-1.287,0-2.452,0.765-2.962,1.947l-26.536,61.422
								c-0.51,1.182-1.675,1.947-2.962,1.947h-43.193c-1.782,0-3.227,1.445-3.227,3.227l0,0c0,1.782,1.445,3.227,3.227,3.227h42.526
								h85.326h0.21c1.782,0,3.227-1.445,3.227-3.227v-3.227h-0.649l26.271-60.809C458.774,249.144,457.212,246.768,454.891,246.768
								z"/>
							<path style="fill:#CDB490;" d="M430.11,318.537h-78.296c-2.321,0-3.883-2.376-2.962-4.506l28.218-65.316
								c0.511-1.182,1.675-1.947,2.962-1.947h78.296c2.321,0,3.882,2.376,2.962,4.507l-28.218,65.316
								C432.562,317.772,431.397,318.537,430.11,318.537z"/>
						</g>
						<g>
							<g>
								<rect x="70.75" y="333.168" style="fill:#7672F9;" width="9.835" height="101.159"/>
								<rect x="427.845" y="333.168" style="fill:#7672F9;" width="9.836" height="101.159"/>
							</g>
						</g>
						<path style="fill:#90C3FA;" d="M326.025,291.094h-16.983c-0.761,0-1.377,0.616-1.377,1.377v3.349
							c-0.109-0.004-0.215-0.016-0.325-0.016c-4.561,0-8.273,3.711-8.273,8.273c0,4.561,3.711,8.273,8.273,8.273
							c0.345,0,0.682-0.028,1.016-0.069c1.443,3.661,5.003,6.257,9.177,6.257c5.45,0,9.869-4.418,9.869-9.869v-16.197
							C327.402,291.71,326.786,291.094,326.025,291.094z M307.34,311.431c-4.056,0-7.355-3.299-7.355-7.355
							c0-4.056,3.299-7.355,7.355-7.355c0.109,0,0.216,0.012,0.325,0.016v11.93c0,0.947,0.141,1.86,0.39,2.727
							C307.82,311.418,307.582,311.431,307.34,311.431z"/>
						<g>
							<path style="fill:#91C2FA;" d="M128.736,305.222H69.709c-3.626,0-6.565,2.939-6.565,6.565v0.186
								c0,3.625,2.939,6.564,6.565,6.564h59.027V305.222z"/>
							<rect x="70.624" y="308.267" style="fill:#FFFFFF;" width="58.112" height="7.226"/>
						</g>
						<g>
							<path style="fill:#A99068;" d="M63.144,291.907h59.027c3.625,0,6.564,2.939,6.564,6.565v0.186
								c0,3.625-2.939,6.564-6.564,6.564H63.144V291.907z"/>
							
								<rect x="63.144" y="294.951" transform="matrix(-1 -1.224647e-16 1.224647e-16 -1 184.4007 597.1288)" style="fill:#FFFFFF;" width="58.112" height="7.226"/>
						</g>
					</g>
					<g>
						<rect x="299.068" y="210.329" style="fill:#E0DFFF;" width="31.69" height="10.765"/>
						<rect x="299.068" y="227.653" style="fill:#E0DFFF;" width="31.69" height="10.765"/>
						<rect x="108.008" y="241.094" style="fill:#E0DFFF;" width="31.69" height="10.764"/>
						<rect x="108.008" y="258.419" style="fill:#E0DFFF;" width="31.69" height="10.765"/>
						<rect x="271.814" y="258.861" style="fill:#E0DFFF;" width="31.69" height="10.764"/>
						<rect x="271.814" y="276.185" style="fill:#E0DFFF;" width="31.69" height="10.765"/>
						<rect x="427.845" y="201.666" style="fill:#E0DFFF;" width="31.69" height="10.764"/>
						<rect x="427.845" y="218.991" style="fill:#E0DFFF;" width="31.69" height="10.765"/>
					</g>
				</g>
			</g>
		</g>
		<ellipse style="fill:#E0DFFF;" cx="255.129" cy="453.134" rx="182.964" ry="17.472"/>
		<g>
			<g>
				<path style="fill:#EECCC9;" d="M340.922,428.996c0,0,7.556,3.747,7.487,7.685c-0.069,3.938-3.235,6.857-6.733,4.535
					c-3.498-2.323-4.793-2.047-4.793-2.047s5.734,1.616,5.267,4.885c-0.467,3.269-3.942,2.22-3.942,2.22s2.053,1.843,0.409,3.277
					c-2.309,2.013-4.047,0.749-4.047,0.749s0.044,1.007-2.068,0.396c-0.231-0.067-0.516-0.183-0.841-0.326l-0.001,0.002
					c0,0-1.169,1.073-3.294,0.095c-2.124-0.978-2.183-3.357-16.783-4.217c-14.599-0.86-24.806,1.257-24.806,1.257l0.747-12.9
					C287.524,434.604,334.477,424.036,340.922,428.996z"/>
				<path style="fill:#D68F80;" d="M340.922,428.996c0,0-3.189,2.61-22.777,4.562c-19.587,1.952-29.319,6.341-29.319,6.341
					l-2.203,8.172l0.153-4.371l0.747-9.097L340.922,428.996z"/>
				<g>
					<path style="fill:#E1706A;" d="M336.863,439.421c-0.018-0.001-0.037-0.005-0.055-0.01c-0.803-0.252-3.062-0.895-3.863-0.823
						c-0.136,0.01-0.262-0.093-0.274-0.232s0.092-0.262,0.232-0.274c1.059-0.081,3.935,0.806,4.057,0.845
						c0.133,0.042,0.208,0.184,0.166,0.318C337.09,439.359,336.979,439.431,336.863,439.421z"/>
					<path style="fill:#E1706A;" d="M332.182,444.282c0.018-0.139,0.139-0.23,0.283-0.219c1.861,0.238,5.683,1.907,5.845,1.978
						c0.129,0.056,0.187,0.206,0.131,0.334c-0.045,0.102-0.148,0.16-0.253,0.151c-0.027-0.002-0.054-0.008-0.081-0.021
						c-0.039-0.017-3.917-1.71-5.706-1.939C332.262,444.548,332.164,444.422,332.182,444.282z"/>
					<path style="fill:#E1706A;" d="M329.781,447.715c0.027-0.138,0.156-0.245,0.298-0.2c1.54,0.3,4.516,2.487,4.642,2.58
						c0.113,0.084,0.137,0.242,0.053,0.355c-0.054,0.073-0.14,0.109-0.225,0.102c-0.045-0.004-0.09-0.019-0.129-0.048
						c-0.03-0.022-3.01-2.212-4.438-2.491C329.844,447.986,329.754,447.852,329.781,447.715z"/>
					<path style="fill:#E1706A;" d="M327.728,447.913c1.409,0.116,3.983,2.171,4.092,2.258c0.109,0.087,0.127,0.247,0.039,0.356
						c-0.055,0.069-0.137,0.101-0.218,0.094c-0.049-0.004-0.097-0.022-0.138-0.055c-0.708-0.568-2.774-2.062-3.816-2.148
						c-0.14-0.011-0.243-0.134-0.232-0.273C327.466,448.006,327.588,447.902,327.728,447.913z"/>
				</g>
			</g>
			<g>
				<path style="fill:#32338C;" d="M162.871,401.599c0,0,0.201,21.254,9.16,29.876c8.959,8.622,27.461,21.845,45.083,21.003
					c17.622-0.842,69.663-3.449,69.663-3.449l0.747-14.424c0,0,42.975,0.224,64.882-9.424c21.908-9.648,33.209-14.062,30.917-29.514
					c-2.292-15.452-13.317-26.788-28.032-24.181c-14.715,2.607-82.526,14.656-82.526,14.656l-84.644-4.987L162.871,401.599z"/>
				<g>
					<path style="fill:#24276B;" d="M257.04,429.428l30.484,5.176l-32.999-3.983l-0.881-6.305l-9.969-6.82
						c0,0,6.585,3.108,13.325,4.679L257.04,429.428z"/>
					<path style="fill:#324560;" d="M274.391,398.514c-0.139,0.022-0.265,0.042-0.398,0.062
						C274.16,398.55,274.296,398.529,274.391,398.514z"/>
					<path style="fill:#324560;" d="M273.993,398.576c-0.273,0.043-0.628,0.098-1.024,0.16
						C273.288,398.686,273.629,398.633,273.993,398.576z"/>
					<path style="fill:#324560;" d="M274.422,398.509c-0.01,0.002-0.02,0.003-0.031,0.005
						C274.402,398.512,274.411,398.51,274.422,398.509z"/>
					<path style="fill:#24276B;" d="M291.784,382.762l27.295-4.849c0,0,1.217,1.508-4.15,3.357
						c-5.367,1.849,32.482-5.212,41.55-2.562c0,0-24.184,3.48-34.332,6.144c-10.148,2.664-35.096,11.679-47.598,13.637
						L291.784,382.762z"/>
					<path style="fill:#324560;" d="M274.549,398.489c-0.045,0.007-0.083,0.013-0.127,0.02
						C274.502,398.496,274.549,398.489,274.549,398.489z"/>
					<path style="fill:#324560;" d="M272.969,398.736c-0.589,0.092-1.105,0.173-1.548,0.242
						C271.947,398.896,272.486,398.812,272.969,398.736z"/>
					<path style="fill:#324560;" d="M269.538,399.274c-0.124,0.02-0.23,0.036-0.315,0.049
						C269.305,399.31,269.404,399.295,269.538,399.274z"/>
					<path style="fill:#324560;" d="M269.027,399.354C268.993,399.359,268.99,399.359,269.027,399.354L269.027,399.354z"/>
					<path style="fill:#324560;" d="M269.223,399.323c-0.097,0.015-0.163,0.026-0.196,0.031
						C269.061,399.348,269.126,399.338,269.223,399.323z"/>
					<path style="fill:#324560;" d="M271.422,398.979c-0.406,0.064-0.799,0.125-1.15,0.18
						C270.586,399.109,270.97,399.049,271.422,398.979z"/>
					<path style="fill:#324560;" d="M270.272,399.159c-0.299,0.047-0.547,0.086-0.734,0.115
						C269.742,399.242,269.992,399.203,270.272,399.159z"/>
					<path style="fill:#24276B;" d="M212.461,418.515c0,0-6.313,18.815-17.341,22.997L212.461,418.515z"/>
				</g>
			</g>
			<g>
				<path style="fill:#D68F80;" d="M201.896,190.35c-4.177-8.169-3.978-16.625,0.446-18.887c4.423-2.262,11.396,2.526,15.573,10.695
					c0.032,0.063,0.059,0.126,0.09,0.189c3.946,7.846,3.852,15.893-0.134,18.442c-0.134,0.086-0.26,0.183-0.403,0.256
					C213.046,203.307,206.074,198.519,201.896,190.35z"/>
				<g>
					<path style="fill:#D68F80;" d="M250.431,213.055c0,0-4.535,9.778-1.886,14.744c2.649,4.966,18.743,11.377,18.743,11.377
						s-9.624,53.141-22.911,57.986c-13.287,4.844-43.469-69.545-43.469-69.545s17.319-8.497,18.718-27.59
						C221.023,180.934,256.118,199.472,250.431,213.055z"/>
					<path style="fill:#BB7468;" d="M217.679,209.039l-0.029-0.095c1.014-2.668,1.734-5.632,1.974-8.917
						c1.399-19.093,36.494-0.555,30.807,13.029c0,0-0.895,1.931-1.657,4.512C248.759,217.572,234.536,222.347,217.679,209.039z"/>
				</g>
				<path style="fill:#EECCC9;" d="M271.292,170.008c0,0-2.182,10.697-0.903,19.312c1.279,8.615-7.747,22.64-15.847,26.983
					c-8.1,4.344-25.296-3.923-31.682-10.134c-6.386-6.21-11.148-22.375-11.647-29.723c-0.499-7.348,9.745-36.895,30.822-34.061
					C263.112,145.22,274.392,151.772,271.292,170.008z"/>
				<g>
					<path style="fill:#4B4746;" d="M199.602,150.088c0,0,0.103-19.835,13.49-23.314c13.387-3.479,14.855,0.33,14.855,0.33
						s33.648-12.372,42.187-0.604c0,0,24.316,8.612,6.538,29.92c0,0,2.704,7.345-1.516,9.161c-4.22,1.816-3.372-0.277-3.372-0.277
						l-0.207-4.179c0,0-3.478,0.569-5.59-4.692c0,0-21.661,6.107-18.752-1.159c0,0-14.127,9.651-14.755,3.367
						c0,0-12.409,11.7-12.449,4.447c0,0-0.042,9.803-4.427,8.991c0,0-3.591,17.79,1.833,25.941c0,0-10.936-13.848-8.072-25.665
						c0,0-4.764-1.583-7.56-0.565C201.803,171.789,193.325,156.822,199.602,150.088z"/>
					<path style="fill:#4B4746;" d="M202.564,207.443c4.568-0.897,5.859-8.719,5.859-8.719c6.053,4.907,10.16,1.516,10.16,1.516
						l1.031,1.761c-2.081,11.176-7.16,15.954-7.16,15.954c-3.692,1.383-1.39-7.652-6.152-3.878
						C201.539,217.851,197.996,208.34,202.564,207.443z"/>
				</g>
				<g>
					<g>
						<path style="fill:#4B4746;" d="M269.781,176.393c0,0,0.154-2.476-3.503-3.982c-4.189-1.725-5.663,1.715-6.233,1.075
							c-0.57-0.64,1.808-4.745,6.381-4.044C271,170.144,271.427,174.551,269.781,176.393z"/>
						<path style="fill:#4B4746;" d="M248.687,171.409c0,0-13.013-3.483-16.676,1.34c-3.663,4.822-1.677-0.633,0.193-3.062
							c3.721-4.834,13.768-1.366,13.555-3.714c-0.075-0.828,5.059,1.137,5.385,3.131
							C251.469,171.097,251.376,171.991,248.687,171.409z"/>
					</g>
					<path style="fill:#E4887A;" d="M228.915,205.751c5.162,4.114,11.136,5.204,13.344,2.434c2.208-2.77-0.187-8.35-5.349-12.464
						c-5.162-4.114-11.136-5.204-13.344-2.434C221.359,196.057,223.753,201.637,228.915,205.751z"/>
					<g>
						<path style="fill:#2C2636;" d="M244.736,178.772c0.075,0.022,0.148,0.057,0.215,0.106c0.319,0.232,0.39,0.677,0.158,0.995
							c-0.264,0.364-2.65,3.546-5.071,3.005c-1.463-0.335-2.519-1.929-3.077-4.872c-0.074-0.387,0.181-0.759,0.567-0.833
							c0.383-0.073,0.76,0.18,0.833,0.567c0.42,2.222,1.113,3.522,1.987,3.746c1.281,0.288,3.079-1.723,3.608-2.45
							C244.138,178.785,244.454,178.688,244.736,178.772z"/>
						<path style="fill:#2C2636;" d="M268.581,180.328c0.062,0.008,0.124,0.03,0.182,0.065c0.277,0.17,0.377,0.593,0.224,0.947
							c-0.175,0.405-1.768,3.953-3.753,3.859c-1.2-0.065-2.199-1.438-2.933-4.222c-0.097-0.366,0.07-0.777,0.371-0.919
							c0.299-0.141,0.624,0.039,0.72,0.406c0.553,2.103,1.233,3.252,1.952,3.314c1.05,0.052,2.289-2.244,2.639-3.052
							C268.105,180.449,268.349,180.297,268.581,180.328z"/>
					</g>
					<g>
						<path style="fill:#E5B9B7;" d="M261.526,189.812c0,0-0.585-0.323-1.436-0.814c-0.852-0.491-6.131-2.588-6.783,0.3
							c-0.653,2.888-0.489,3.459,1.965,4.503c1.748,0.744,6.554-3.632,6.554-3.632"/>
						<path style="fill:#D6657B;" d="M258.067,189.386l-0.706-0.05l-3.352-0.238l-0.22-0.016c-0.317-0.022-0.591,0.207-0.613,0.512
							l-0.163,2.297c-0.021,0.305,0.218,0.571,0.534,0.593l0.221,0.016c0,0,1.191,0.284,1.314,1.062c0,0-0.058,0.395,1.295,0.491
							c0.264,0.019,0.476,0.034,0.647,0.046l2.566,0.017c1.353,0.096,1.588-1.09,1.588-1.09l0.22,0.016l0,0
							c0.317,0.022,0.591-0.207,0.612-0.512l-0.186-2.36c0,0-0.183-0.535-1.004-0.588L258.067,189.386z"/>
					</g>
					<path style="fill:#FFFFFF;" d="M234.991,184.883c1.38,2.769,3.682,4.664,6.417,4.889c2.744,0.226,5.332-1.279,7.146-3.801
						c10.275-3.181,13.102,0.951,13.128,0.993l0.005-0.003c1.373,2.833,3.698,4.781,6.472,5.009
						c4.799,0.394,9.131-4.488,9.656-10.884c0.525-6.395-2.951-11.919-7.75-12.314c-4.799-0.394-9.131,4.488-9.656,10.884
						c-0.156,1.899,0.048,3.717,0.527,5.351c-1.783-1.064-5.293-2.042-11.582-0.318c0.915-1.668,1.532-3.645,1.709-5.801
						c0.525-6.395-2.951-11.919-7.75-12.314c-4.799-0.394-9.131,4.488-9.656,10.883c-0.178,2.169,0.113,4.232,0.751,6.035
						l-24.831-11.598l-0.429,0.919L234.991,184.883z M261.421,179.739c0.48-5.838,4.321-10.304,8.562-9.956
						c4.241,0.349,7.302,5.382,6.822,11.22c-0.48,5.839-4.321,10.305-8.562,9.956C264.002,190.611,260.941,185.577,261.421,179.739z
						 M234.669,177.541c0.48-5.838,4.321-10.304,8.562-9.956c4.242,0.348,7.302,5.382,6.822,11.22
						c-0.48,5.839-4.321,10.305-8.562,9.956C237.25,188.413,234.189,183.38,234.669,177.541z"/>
					<path style="fill:#88382B;" d="M250.232,203.039c0.186-0.209,0.507-0.227,0.716-0.04c4.47,3.995,8.527,0.882,8.696,0.749
						c0.219-0.172,0.537-0.138,0.713,0.083c0.173,0.219,0.137,0.537-0.081,0.711c-0.033,0.026-2.194,1.701-5.148,1.459
						c-1.477-0.121-3.15-0.721-4.856-2.245C250.063,203.569,250.045,203.248,250.232,203.039z"/>
				</g>
			</g>
			<g>
				<path style="fill:#FFFFFF;" d="M247.728,233.413c0,0-5.383,17.874-27.919-2.294c0,0,21.636,42.481,19.86,58.108
					C239.669,289.228,259.445,252.458,247.728,233.413z"/>
				<path style="fill:#4C3E3B;" d="M247.881,225.814c0,0,35.573,16.828,40.904,23.151c5.332,6.322,17.647,58.722,17.647,58.722
					s-10.501,15.927-29.09,19.234l-1.972,58.821c0,0-59.134,0.012-71.872,0.238c-9.427,0.167-29.531,9.905-39.348,14.957
					c-2.194,1.129-4.689-0.852-4.101-3.248l18.361-74.826c0,0-33.473-13.689-38.707-24.295c0,0,25.29-57.008,29.811-59.402
					c4.521-2.394,41.915-19.988,41.915-19.988s28.1,37.476,29.422,55.647C240.852,274.824,248.918,237.547,247.881,225.814z"/>
				<g>
					<path style="fill:#3F2E2B;" d="M178.411,322.863l11.639-51.874l-13.565,75.313l20.846,40.656c0,0-18.363-2.036-31.815-11.549
						L178.411,322.863z"/>
					<polygon style="fill:#3F2E2B;" points="277.342,326.921 284.058,272.438 282.729,325.558 					"/>
					<polygon style="fill:#3F2E2B;" points="204.188,255.785 211.43,219.177 210.355,252.984 225.772,257.304 216.554,263.161 
						240.852,274.824 210.937,264.48 217.524,259.17 					"/>
					<polygon style="fill:#3F2E2B;" points="248.494,259.425 257.861,256.887 247.881,225.814 262.568,260.038 251.85,260.973 
						256.968,267.753 240.852,274.824 253.827,265.969 					"/>
				</g>
			</g>
			<g>
				<path style="fill:#EECCC9;" d="M149.863,352.953c-0.055,6.864,14.02,15.144,25.325,23.069
					c11.306,7.925,33.715,13.836,33.715,13.836c-1.643-0.135-1.924,1.75-1.924,1.75s-2.285-0.061-2.26,2.74
					c0.024,2.8,4.362,2.648,8.858,3.653c4.496,1.005,11.025,11.336,11.025,11.336c5.569,0.33,14.755,4.647,18.327,7.611
					c3.572,2.965,14.071,5.226,14.071,5.226l0.333-21.087c0,0,6.431-0.871,13.379-1.826c6.947-0.956,15.407-4.84,17.899-7.306
					c2.492-2.466,3.262-10.289,3.007-21.122c-0.255-10.833-1.351-12.97-2.464-19.548c-1.113-6.579-0.912-27.992-0.912-27.992
					c-2.227,1.034-10.901,3.629-10.901,3.629l-1.68,50.105c0,0-9.606-4.181-13.192-6.977c-3.586-2.796-4.891-8.076-5.628-8.391
					c-0.737-0.315-3.958,3.279-6.114,5.264c-2.156,1.985-7.324,5.546-17.268,10.453c-9.943,4.907-14.147,1.89-14.147,1.89
					s-4.571-1.647-11.577-6.166c-7.006-4.519-31.456-25.862-32.87-28.776c-1.414-2.915,3.544-21.46,3.544-21.46l-25.05-12.483
					C153.361,310.379,149.918,346.089,149.863,352.953z M246.768,380.546c0.72-2.57,2.963-5.099,5.649-6.828
					c2.686-1.73,4.103-2.456,4.418-3.196c0,0,2.918,4.732,5.77,6.153c2.851,1.421,3.291,5.358,4.114,6.698
					c0.823,1.34,3.015,3.555,3.015,3.555s-12.413-3.733-15.894-3.68c-3.481,0.053-5.753,1.902-5.753,1.902
					S246.048,383.115,246.768,380.546z"/>
				<g>
					<path style="fill:#E1706A;" d="M275.384,376.945c0.052-0.131,0.199-0.197,0.329-0.143c0.229,0.09,5.614,2.229,7.695,4.125
						c0.104,0.095,0.111,0.255,0.016,0.358c-0.055,0.061-0.133,0.089-0.208,0.082c-0.054-0.004-0.107-0.026-0.15-0.065
						c-2.013-1.835-7.484-4.008-7.539-4.029C275.397,377.222,275.333,377.075,275.384,376.945z"/>
					<path style="fill:#E1706A;" d="M252.165,388.627c-0.347-0.159-0.839-0.302-1.36-0.455c-1.288-0.377-2.748-0.804-3.128-1.746
						c-0.168-0.419-0.106-0.892,0.188-1.405c0.07-0.121,0.225-0.163,0.346-0.095c0.122,0.07,0.164,0.224,0.095,0.346
						c-0.216,0.378-0.268,0.693-0.158,0.964c0.288,0.714,1.681,1.122,2.8,1.448c0.539,0.158,1.047,0.307,1.428,0.48
						c1.505,0.686,12.683,4.421,16.183,5.282c3.455,0.85,11.26,3.07,11.338,3.092c0.135,0.038,0.213,0.178,0.174,0.314
						c-0.034,0.118-0.146,0.193-0.264,0.183c-0.016-0.001-0.033-0.005-0.049-0.009c-0.079-0.022-7.874-2.239-11.321-3.087
						C264.921,393.075,253.681,389.317,252.165,388.627z"/>
					<path style="fill:#E1706A;" d="M256.814,370.773c-0.07-0.006-0.137-0.04-0.182-0.102c-0.083-0.112-0.06-0.27,0.052-0.354
						c3.269-2.441,1.139-6.415,1.048-6.584c-0.067-0.123-0.023-0.276,0.1-0.344c0.121-0.069,0.276-0.024,0.344,0.099
						c0.025,0.046,2.437,4.528-1.189,7.235C256.935,370.762,256.874,370.778,256.814,370.773z"/>
					<path style="fill:#E1706A;" d="M221.108,379.972c0.013-0.138,0.135-0.239,0.273-0.228c0.001,0,0.002,0,0.004,0
						c3.962,0.383,7.952,4.372,10.148,8.155c2.375,4.092,11.51,11.557,13.988,12.568c1.818,0.743,7.121,0.608,9.957,0.472
						c-2.992-0.702-8.722-2.252-9.757-4.045c-0.191-0.331-0.232-0.663-0.122-0.987c1.028-3.033,4.289-2.483,8.129-1.52
						c5.043,1.266,15.77,4.76,15.878,4.796c0.133,0.044,0.206,0.187,0.163,0.319c-0.043,0.134-0.187,0.208-0.32,0.163
						c-0.108-0.035-10.818-3.524-15.844-4.785c-4.353-1.094-6.712-1.207-7.526,1.19c-0.062,0.183-0.035,0.369,0.081,0.57
						c1.053,1.825,8.459,3.649,11.223,4.198c0.124,0.024,0.211,0.138,0.204,0.264c-0.007,0.127-0.108,0.228-0.235,0.237
						c-0.292,0.022-5.632,0.401-9.303,0.099c-1.13-0.093-2.102-0.25-2.72-0.503c-2.592-1.058-11.762-8.523-14.234-12.783
						c-2.52-4.342-6.533-7.592-9.759-7.904C221.196,380.236,221.094,380.112,221.108,379.972z"/>
					<path style="fill:#E1706A;" d="M275.666,387.999c-0.007,0.139-0.125,0.248-0.265,0.242c-0.143-0.007-0.289-0.017-0.438-0.029
						c-2.309-0.19-5.171-1.005-5.299-1.042c-0.135-0.039-0.213-0.18-0.174-0.313c0.039-0.136,0.185-0.21,0.313-0.174
						c0.033,0.01,3.311,0.951,5.622,1.051C275.555,387.755,275.672,387.86,275.666,387.999z"/>
					<path style="fill:#E1706A;" d="M209.862,389.963c-0.54-0.112-0.717,0.002-0.737,0.019c-0.049,0.087-0.145,0.136-0.242,0.128
						c-0.027-0.002-0.053-0.008-0.079-0.019c-0.129-0.055-0.189-0.204-0.134-0.333c0.036-0.083,0.244-0.443,1.075-0.335
						c-0.166-0.926-0.006-1.806,0.488-2.402c0.331-0.398,0.97-0.831,2.085-0.791c0.056-0.157,0.122-0.319,0.203-0.489
						c0.339-0.717,0.827-1.177,1.451-1.366c0.554-0.169,1.109-0.09,1.535,0.036c-0.385-0.786-0.471-1.601-0.236-2.295
						c1.064-3.151,4.019-3.104,4.049-3.104c0.162,0.015,0.251,0.121,0.246,0.261c-0.004,0.14-0.12,0.25-0.26,0.247
						c-0.106-0.003-2.614-0.03-3.556,2.759c-0.263,0.777,0.028,1.552,0.225,1.942c0.326,0.65,0.819,1.134,1.107,1.229
						c2.043,0.666,3.577,2.557,4.696,3.937c0.231,0.285,0.442,0.545,0.633,0.763c0.093,0.105,0.082,0.265-0.023,0.358
						c-0.054,0.047-0.122,0.068-0.188,0.062c-0.063-0.005-0.124-0.034-0.17-0.086c-0.195-0.222-0.409-0.487-0.646-0.777
						c-1.079-1.332-2.558-3.156-4.459-3.775c-0.297-0.096-0.636-0.392-0.94-0.775c-0.088-0.051-1.014-0.557-1.869-0.296
						c-0.48,0.146-0.862,0.516-1.137,1.097c-0.959,2.032-0.036,2.704,3.068,4.251c3.053,1.522,3.831,2.233,3.864,2.262
						c0.102,0.095,0.107,0.254,0.012,0.357c-0.055,0.06-0.131,0.087-0.207,0.08c-0.054-0.004-0.107-0.026-0.151-0.065
						c-0.007-0.008-0.785-0.704-3.744-2.18c-2.561-1.277-4.027-2.121-3.646-3.928c-0.666,0.007-1.206,0.193-1.552,0.611
						c-0.45,0.542-0.574,1.434-0.322,2.327c0.566,2.005,1.032,2.431,3.118,2.848c2.207,0.44,4.492,2.294,4.588,2.372
						c0.109,0.089,0.125,0.249,0.036,0.357c-0.055,0.067-0.137,0.099-0.217,0.092c-0.049-0.004-0.098-0.023-0.139-0.056
						c-0.023-0.019-2.285-1.853-4.366-2.269C211.11,392.577,210.464,392.013,209.862,389.963z"/>
					<path style="fill:#E1706A;" d="M206.927,391.36c0.133-0.026,0.27,0.059,0.3,0.195c0.006,0.025,0.566,2.579,2.372,2.727
						c2.047,0.168,5.548,2.021,5.695,2.1c0.124,0.066,0.171,0.22,0.105,0.342c-0.049,0.092-0.147,0.142-0.244,0.134
						c-0.034-0.003-0.066-0.012-0.098-0.029c-0.035-0.019-3.557-1.882-5.499-2.042c-2.183-0.179-2.801-3.008-2.826-3.128
						C206.702,391.522,206.79,391.388,206.927,391.36z"/>
				</g>
				<g>
					<path style="fill:#D68F80;" d="M153.361,310.379l25.05,12.483c0,0-19.546-4.914-25.445-8.324L153.361,310.379z"/>
					<path style="fill:#D68F80;" d="M288.243,323.292l-0.01,1.659l-9.846,3.741l-2.673,48.11l1.629-49.881
						C277.342,326.921,286.001,324.336,288.243,323.292z"/>
					<polygon style="fill:#D68F80;" points="257,422.175 253.848,421.322 257.334,401.087 					"/>
				</g>
			</g>
		</g>
		<g>
			<g>
				<path style="fill:#0F4956;" d="M94.295,337.033c-0.535-0.337-1.24-0.178-1.577,0.356c-0.338,0.534-0.178,1.24,0.356,1.577
					c24.951,15.764,25.413,65.696,25.415,66.198c0.002,0.631,0.513,1.14,1.143,1.14c0.001,0,0.003,0,0.004,0
					c0.631-0.002,1.141-0.516,1.139-1.147C120.769,403.055,120.309,353.47,94.295,337.033z"/>
				<path style="fill:#0F4956;" d="M104.017,296.855c-0.467-0.424-1.19-0.39-1.615,0.078c-0.424,0.468-0.389,1.19,0.079,1.614
					c24.97,22.66,21.684,96.49,20.647,101.095c-0.054,0.071-0.099,0.152-0.136,0.238c-0.246,0.582,0.027,1.253,0.609,1.498
					c0.133,0.056,0.276,0.082,0.421,0.082c0.413,0,0.835-0.214,1.056-0.563C126.798,398.204,129.652,320.118,104.017,296.855z"/>
				<path style="fill:#0F4956;" d="M99.976,253.504c-0.588-0.221-1.25,0.081-1.469,0.674c-0.219,0.593,0.083,1.25,0.675,1.469
					c0.324,0.12,32.428,13.508,31.024,142.517c-0.007,0.631,0.499,1.149,1.131,1.155c0.004,0,0.008,0,0.012,0
					c0.626,0,1.136-0.503,1.143-1.131C133.914,267.579,101.362,254.018,99.976,253.504z"/>
			</g>
			<g>
				<path style="fill:#0F4956;" d="M97.235,338.21c-1.843,0.421-3.633-0.775-4.016-2.626c-1.141-5.506-5.067-14.99-18.568-12.83
					c-7.177,1.148-11.904,2.603-15.006,3.961c-2.709,1.187-2.65,5.082,0.092,6.188c3.218,1.298,5.906,2.834,2.391,3.374
					c-4.49,0.691-9.336,0.667-11.914,0.586c-1.172-0.037-2.271,0.543-2.913,1.524l0,0c-1.415,2.164,0.032,5.045,2.613,5.207
					c6.953,0.434,16.942,1.335,10.962,2.702c-6.209,1.419-13.172,2.085-16.705,2.352c-1.403,0.106-2.594,1.068-2.985,2.419
					l-0.792,2.738c-0.638,2.204,1.061,4.388,3.354,4.304c6.117-0.227,15.355-0.368,8.864,1.211
					c-5.489,1.335-9.572,2.846-11.989,3.856c-1.486,0.621-2.329,2.195-2.013,3.773l0.285,1.426c0.375,1.875,2.233,3.066,4.092,2.615
					c3.29-0.798,7.343-1.691,4.115-0.4c-2.565,1.026-4.079,2.118-4.946,2.939c-0.698,0.661-1.052,1.602-1.008,2.562l0.54,11.872
					c0.085,1.878,1.69,3.322,3.566,3.21l10.593-0.632c1.603-0.096,2.918-1.307,3.139-2.897c0.669-4.813,2.078-13.923,2.641-9.791
					c0.464,3.399,0.927,7.085,1.214,9.409c0.175,1.419,1.226,2.567,2.623,2.873l1.225,0.268c2.201,0.481,4.243-1.282,4.08-3.528
					c-0.506-6.975-1.038-19.066,1.878-13.78c2.73,4.949,4.879,11.641,5.971,15.404c0.477,1.642,2.102,2.66,3.788,2.379l3.907-0.651
					c1.938-0.323,3.189-2.225,2.717-4.132c-2.054-8.299-6.533-27.887-1.356-21.515c4.597,5.658,8.07,15.433,9.715,20.694
					c0.598,1.914,2.728,2.872,4.565,2.067c2.381-1.044,5.526-2.431,7.956-3.535c1.884-0.856,2.552-3.186,1.414-4.914
					c-4.768-7.233-15.397-23.873-9.875-20.323c5.011,3.221,12.963,10.663,17.094,14.648c1.498,1.445,3.949,1.218,5.115-0.507
					c1.608-2.377,3.447-5.794,3.586-9.133c0.251-6.011-0.501-23.292-13.023-25.546C106.656,336.669,100.736,337.41,97.235,338.21z"
					/>
				<path style="fill:#FFFFFF;" d="M94.199,339.033c-0.137-0.284-0.479-0.404-0.764-0.263
					c-28.82,14.008-48.787,48.284-48.985,48.629c-0.158,0.273-0.064,0.623,0.21,0.78c0.09,0.051,0.188,0.076,0.285,0.076
					c0.198,0,0.39-0.103,0.496-0.287c0.197-0.342,19.995-34.317,48.495-48.171C94.218,339.659,94.337,339.316,94.199,339.033z"/>
			</g>
			<g>
				<path style="fill:#257283;" d="M100.912,297.082c2.142,0.489,4.222-0.901,4.668-3.052c1.326-6.4,5.89-17.424,21.582-14.913
					c8.342,1.335,13.836,3.025,17.441,4.605c3.148,1.379,3.081,5.907-0.107,7.193c-3.741,1.509-6.864,3.294-2.779,3.922
					c5.214,0.802,10.844,0.775,13.841,0.681c1.365-0.043,2.646,0.628,3.393,1.771l0,0c1.642,2.511-0.031,5.864-3.026,6.051
					c-8.082,0.505-19.706,1.552-12.752,3.141c7.217,1.65,15.31,2.423,19.417,2.734c1.63,0.123,3.015,1.242,3.469,2.812l0.921,3.182
					c0.742,2.562-1.233,5.101-3.898,5.002c-7.11-0.263-17.848-0.428-10.303,1.408c6.399,1.557,11.154,3.319,13.96,4.493
					c1.717,0.718,2.68,2.55,2.315,4.376l-0.331,1.657c-0.436,2.18-2.596,3.564-4.756,3.039c-3.824-0.928-8.535-1.966-4.783-0.465
					c2.973,1.189,4.731,2.454,5.74,3.408c0.815,0.77,1.231,1.867,1.18,2.986l-0.627,13.8c-0.099,2.182-1.965,3.862-4.146,3.731
					l-12.314-0.735c-1.863-0.111-3.391-1.519-3.648-3.367c-0.778-5.595-2.415-16.184-3.07-11.38
					c-0.539,3.951-1.078,8.235-1.411,10.937c-0.204,1.65-1.425,2.984-3.049,3.339l-1.423,0.311c-2.558,0.56-4.932-1.494-4.743-4.106
					c0.588-8.108,1.206-22.155-2.183-16.012c-3.171,5.747-5.667,13.517-6.937,17.893c-0.555,1.91-2.445,3.105-4.407,2.778
					l-4.541-0.757c-2.252-0.375-3.706-2.586-3.158-4.803c2.387-9.646,7.593-32.414,1.576-25.008
					c-5.341,6.574-9.378,17.933-11.291,24.049c-0.696,2.226-3.166,3.346-5.302,2.41c-2.768-1.213-6.424-2.827-9.251-4.111
					c-2.189-0.995-2.969-3.704-1.645-5.712c5.542-8.407,17.897-27.749,11.478-23.622c-5.828,3.746-15.078,12.404-19.878,17.034
					c-1.745,1.684-4.592,1.395-5.95-0.615c-1.866-2.763-3.995-6.725-4.156-10.598c-0.291-6.987,0.582-27.073,15.138-29.693
					C89.961,295.291,96.842,296.152,100.912,297.082z"/>
				<path style="fill:#FFFFFF;" d="M162.187,354.301c-0.231-0.401-23.425-40.214-56.899-56.486c-0.285-0.143-0.626-0.02-0.764,0.263
					c-0.138,0.284-0.019,0.626,0.264,0.764c33.154,16.116,56.179,55.632,56.408,56.028c0.105,0.184,0.298,0.287,0.496,0.287
					c0.097,0,0.195-0.025,0.285-0.076C162.25,354.924,162.344,354.575,162.187,354.301z"/>
			</g>
			<g>
				<path style="fill:#257283;" d="M101.568,255.099c-1.276-0.371-1.991-1.697-1.598-2.966c1.152-3.722,1.94-10.772-6.954-13.985
					c-4.714-1.703-8.057-2.408-10.391-2.627c-2.057-0.193-3.345,2.179-2.044,3.783c1.512,1.864,2.622,3.691,0.313,2.841
					c-2.952-1.087-5.881-2.726-7.415-3.639c-0.698-0.415-1.558-0.433-2.276-0.053l0,0c-1.582,0.837-1.676,3.065-0.168,4.027
					c4.068,2.594,9.825,6.492,5.742,5.315c-4.24-1.222-8.684-3.154-10.914-4.177c-0.887-0.407-1.927-0.22-2.618,0.469l-1.396,1.391
					c-1.125,1.121-0.829,3.015,0.588,3.732c3.782,1.913,9.429,4.925,4.966,3.706c-3.779-1.033-6.763-1.486-8.565-1.684
					c-1.107-0.121-2.139,0.552-2.477,1.613l-0.305,0.959c-0.402,1.264,0.326,2.607,1.606,2.957c2.261,0.619,5.012,1.436,2.625,1.136
					c-1.915-0.24-3.204-0.082-4.003,0.128c-0.637,0.167-1.157,0.619-1.449,1.21l-3.653,7.374c-0.578,1.166-0.09,2.58,1.085,3.141
					l6.63,3.168c1.003,0.479,2.207,0.187,2.874-0.703c2.019-2.692,5.927-7.74,4.883-5.047c-0.858,2.214-1.812,4.601-2.418,6.106
					c-0.37,0.919-0.119,1.969,0.626,2.622l0.652,0.573c1.172,1.029,3,0.649,3.654-0.767c2.031-4.396,5.764-11.905,5.759-7.723
					c-0.005,3.917-0.948,8.697-1.547,11.342c-0.261,1.153,0.385,2.311,1.499,2.705l2.586,0.915c1.281,0.453,2.677-0.276,3.03-1.588
					c1.537-5.715,5.391-19.094,6.392-13.496c0.889,4.97-0.284,12.059-1.051,15.798c-0.278,1.358,0.686,2.653,2.066,2.781
					c1.794,0.166,4.168,0.38,6.013,0.526c1.429,0.113,2.615-1.072,2.504-2.502c-0.464-5.98-1.327-19.629,0.829-15.627
					c1.957,3.633,4.282,10.813,5.449,14.612c0.423,1.378,1.983,2.057,3.268,1.403c1.771-0.902,4.031-2.355,5.235-4.332
					c2.167-3.558,7.505-14.281,0.673-19.845C107.772,257.333,103.961,255.795,101.568,255.099z"/>
				<path style="fill:#FFFFFF;" d="M99.038,253.975c-22.209-1.196-45.848,12.926-46.084,13.068c-0.27,0.163-0.357,0.515-0.194,0.785
					c0.108,0.177,0.296,0.276,0.49,0.276c0.101,0,0.203-0.027,0.295-0.083c0.233-0.141,23.568-14.048,45.434-12.905
					c0.308,0.028,0.584-0.226,0.601-0.54C99.595,254.261,99.354,253.992,99.038,253.975z"/>
			</g>
			<g>
				<path style="fill:#FE9381;" d="M138.158,398.176h-14.113h-14.113c0,0-26.177,0-18.21,26.404
					c5.628,18.651,1.821,25.039,32.323,25.039c30.502,0,26.695-6.388,32.323-25.039
					C164.335,398.176,138.158,398.176,138.158,398.176z"/>
				<g>
					<path style="fill:#F2AFA5;" d="M134.333,439.934c-4.672,0-6.925-1.867-9.534-4.029c-2.871-2.379-6.125-5.076-12.438-5.076
						c-6.314,0-9.568,2.697-12.439,5.076c-1.386,1.149-2.675,2.211-4.277,2.958c0.55,1.55,1.182,2.91,2.007,4.092
						c2.079-0.985,3.682-2.306,5.176-3.545c2.609-2.162,4.862-4.029,9.534-4.029c4.672,0,6.925,1.867,9.534,4.029
						c2.871,2.379,6.125,5.076,12.438,5.076c6.314,0,9.569-2.697,12.44-5.076c2.006-1.662,3.806-3.146,6.652-3.745
						c0.395-1.454,0.782-3.039,1.217-4.762c-5.238,0.429-8.168,2.843-10.774,5.002C141.259,438.067,139.006,439.934,134.333,439.934
						z"/>
					<path style="fill:#F2AFA5;" d="M156.308,421.117c-6.314,0-9.569,2.697-12.44,5.076c-2.609,2.161-4.862,4.029-9.535,4.029
						c-4.672,0-6.925-1.867-9.534-4.029c-2.871-2.379-6.125-5.076-12.438-5.076c-6.314,0-9.568,2.697-12.439,5.076
						c-2.02,1.674-3.832,3.168-6.715,3.758c0.405,1.582,0.765,3.054,1.117,4.419c3.865-0.837,6.3-2.846,8.504-4.672
						c2.609-2.162,4.862-4.029,9.534-4.029c4.672,0,6.925,1.867,9.534,4.029c2.871,2.379,6.125,5.076,12.438,5.076
						c6.314,0,9.569-2.697,12.44-5.076c2.558-2.12,4.78-3.952,9.272-4.022c0.105-0.361,0.212-0.725,0.323-1.096
						c0.362-1.2,0.652-2.345,0.879-3.438C156.94,421.129,156.631,421.117,156.308,421.117z"/>
				</g>
			</g>
		</g>
	</g>
</g>
</svg>
