<svg xmlns="http://www.w3.org/2000/svg" xmlns:xlink="http://www.w3.org/1999/xlink" width="275.959" height="88.237" viewBox="0 0 275.959 88.237"><defs><style>.a{fill:none;}.b{clip-path:url(#a);}.c{fill:url(#b);}.d{fill:url(#c);}.e{fill:url(#d);}.f{fill:url(#e);}.g{fill:#f9f9f9;}.h{fill:#f7f8f8;}</style><clipPath id="a"><path class="a" d="M174.111,350.971l-12.443-7.023-24-13.546c-1.333-.752-2.66-.3-2.66,1.275v55.19c0,1.178.949,1.686,2.107,1.033l24.555-13.859,12.443-7.022,11.961-6.749c1.4-.793,1.268-1.88.085-2.5S174.111,350.971,174.111,350.971Z" transform="translate(-135.006 -330.047)"/></clipPath><linearGradient id="b" x1="0.5" x2="0.5" y2="1" gradientUnits="objectBoundingBox"><stop offset="0" stop-color="#006aa2"/><stop offset="0.345" stop-color="#2f8da6"/><stop offset="0.786" stop-color="#66b6ac"/><stop offset="1" stop-color="#7cc6af"/></linearGradient><linearGradient id="c" y1="0.5" x2="1" y2="0.5" gradientUnits="objectBoundingBox"><stop offset="0" stop-color="#4ab59d"/><stop offset="1" stop-color="#dfe385"/></linearGradient><linearGradient id="d" x1="0.5" x2="0.5" y2="1" gradientUnits="objectBoundingBox"><stop offset="0" stop-color="#e4282d"/><stop offset="0.316" stop-color="#ba2d4e"/><stop offset="0.777" stop-color="#83357b"/><stop offset="1" stop-color="#6e388d"/></linearGradient><linearGradient id="e" x1="0.5" x2="0.5" y2="1" gradientUnits="objectBoundingBox"><stop offset="0" stop-color="#f07165"/><stop offset="0.659" stop-color="#faa460"/><stop offset="1" stop-color="#ffba5e"/></linearGradient></defs><path d="M372.6,372.385a12.064,12.064,0,0,1-12.2,11.926H108.84a12.066,12.066,0,0,1-12.2-11.926V308a12.065,12.065,0,0,1,12.2-11.925H360.4A12.063,12.063,0,0,1,372.6,308Z" transform="translate(-96.641 -296.074)"/><g transform="translate(20.699 17.917)"><g class="b"><path class="c" d="M135.006,328.285v59.753l30.825-29.876Z" transform="translate(-135.006 -329.215)"/><path class="d" d="M174.111,349.943l-12.443-7.022-26.662-15.047v.217l30.825,29.877Z" transform="translate(-135.006 -329.02)"/><path class="e" d="M135.006,414.814v.217l26.662-15.048,12.443-7.022-8.279-8.024Z" transform="translate(-135.006 -355.99)"/><path class="f" d="M200.419,369.721l-8.279,8.025,8.279,8.024,14.22-8.024Z" transform="translate(-161.314 -348.798)"/></g></g><g transform="translate(206.493 33.557)"><path class="g" d="M487.64,390.944a7.841,7.841,0,0,1-3.171-.626,5.951,5.951,0,0,1-2.41-1.926h-.194a22.833,22.833,0,0,1,.194,2.885v7.15h-2.691V373.249h2.189l.372,2.378h.129a6.221,6.221,0,0,1,2.418-2.061,7.488,7.488,0,0,1,3.162-.634,6.636,6.636,0,0,1,5.458,2.363,12.344,12.344,0,0,1-.031,13.28A6.652,6.652,0,0,1,487.64,390.944Zm-.39-15.776a4.828,4.828,0,0,0-3.941,1.475,7.466,7.466,0,0,0-1.25,4.694v.586q0,3.663,1.25,5.24a4.8,4.8,0,0,0,4.006,1.577,4.2,4.2,0,0,0,3.611-1.823,8.5,8.5,0,0,0,1.305-5.027,8.186,8.186,0,0,0-1.305-4.986A4.333,4.333,0,0,0,487.25,375.168Z" transform="translate(-479.368 -365.955)"/><path class="g" d="M517.637,384.374h-2.693V359.7h2.693Z" transform="translate(-495.75 -359.703)"/><path class="g" d="M538.161,390.654l-.536-2.473h-.13a7.421,7.421,0,0,1-2.653,2.212,8.22,8.22,0,0,1-3.3.579,6.026,6.026,0,0,1-4.144-1.332,4.8,4.8,0,0,1-1.5-3.789q0-5.263,8.613-5.518l3.018-.1V379.16a4.332,4.332,0,0,0-.9-3.02,3.749,3.749,0,0,0-2.879-.976,11.936,11.936,0,0,0-5.029,1.332l-.828-2.014a13.191,13.191,0,0,1,6.018-1.49,6.879,6.879,0,0,1,4.713,1.379,5.686,5.686,0,0,1,1.532,4.424v11.859Zm-6.083-1.854a5.545,5.545,0,0,0,3.95-1.348,4.928,4.928,0,0,0,1.436-3.774v-1.57l-2.694.11a9.98,9.98,0,0,0-4.631.977,2.923,2.923,0,0,0-1.419,2.687,2.678,2.678,0,0,0,.884,2.172A3.721,3.721,0,0,0,532.078,388.8Z" transform="translate(-500.793 -365.984)"/><path class="g" d="M555.222,373.533h2.886l3.893,9.91a37.182,37.182,0,0,1,1.59,4.9h.13q.211-.81.883-2.768t4.4-12.042H571.9l-7.641,19.788a9.844,9.844,0,0,1-2.653,4.163,5.723,5.723,0,0,1-3.722,1.227,11.131,11.131,0,0,1-2.434-.268v-2.108a9.619,9.619,0,0,0,2,.19q2.775,0,3.958-3.045l.989-2.473Z" transform="translate(-514.296 -366.239)"/></g><g transform="translate(83.743 31.614)"><path class="g" d="M390.413,375.422a6.1,6.1,0,0,1,2.639,4.907c0,2.688-1.562,3.963-3.124,5.16a2.546,2.546,0,0,0-1.041,1.783,1.989,1.989,0,0,0,.968,1.562l1.339,1.016c1.636,1.345,3.122,2.582,3.122,5.091,0,3.416-3.384,6.869-9.779,6.869-5.393,0-7.994-2.507-7.994-5.2a5.214,5.214,0,0,1,2.863-4.434c2.3-1.381,5.429-1.561,7.1-1.673a3.765,3.765,0,0,1-1.116-2.469,3.222,3.222,0,0,1,.372-1.42c-.411.037-.819.073-1.191.073a5.817,5.817,0,0,1-6.171-5.705,6.48,6.48,0,0,1,2.379-4.871,10.3,10.3,0,0,1,6.658-2H395.1l-2.38,1.309Zm-2.641,16.139a5.891,5.891,0,0,0-.854-.038,15.2,15.2,0,0,0-3.905.584c-.817.288-3.2,1.161-3.2,3.743s2.567,4.436,6.546,4.436c3.568,0,5.466-1.675,5.466-3.927C391.826,394.5,390.6,393.524,387.772,391.561Zm1.079-6.907a3.623,3.623,0,0,0,.928-2.654c0-2.616-1.6-6.687-4.683-6.687a3.506,3.506,0,0,0-2.6,1.2,4.132,4.132,0,0,0-.818,2.69c0,2.435,1.45,6.469,4.65,6.469A3.852,3.852,0,0,0,388.851,384.654Z" transform="translate(-309.271 -364.571)"/><path class="g" d="M351.131,390.517a8.664,8.664,0,0,1-9.058-8.566c0-4.754,3.972-8.816,9.617-8.816a8.581,8.581,0,0,1,8.871,8.564C360.56,385.979,357.184,390.517,351.131,390.517Zm4.64-2.939a6.454,6.454,0,0,0,1.115-4.029c0-3.194-1.559-9.29-6.163-9.29a5.24,5.24,0,0,0-3.34,1.236,5.422,5.422,0,0,0-1.709,4.428c0,3.59,1.819,9.5,6.313,9.5A4.78,4.78,0,0,0,355.771,387.578Z" transform="translate(-293.398 -364.108)"/><path class="g" d="M313.835,390.517a8.664,8.664,0,0,1-9.059-8.566c0-4.754,3.973-8.816,9.617-8.816a8.581,8.581,0,0,1,8.871,8.564C323.264,385.979,319.887,390.517,313.835,390.517Zm4.641-2.939a6.463,6.463,0,0,0,1.114-4.029c0-3.194-1.56-9.29-6.164-9.29a5.241,5.241,0,0,0-3.341,1.236,5.422,5.422,0,0,0-1.708,4.428c0,3.59,1.818,9.5,6.312,9.5A4.783,4.783,0,0,0,318.476,387.578Z" transform="translate(-276.224 -364.108)"/><path class="g" d="M277.572,382.587l-5.338,1.2a40.429,40.429,0,0,1-6.158.619c-10.3,0-14.22-7.407-14.22-13.208,0-7.077,5.56-13.642,15.079-13.642a21.949,21.949,0,0,1,5.709.766,14.691,14.691,0,0,1,4.927,2.262l-3.1,2.882-1.306.29.933-1.459a10.766,10.766,0,0,0-7.987-3.428c-5.9,0-10.34,4.38-10.34,10.764a13.039,13.039,0,0,0,13.212,13.315,11.334,11.334,0,0,0,4.741-.912v-5.873l-5.635.292,2.984-1.571h7.913l-.969.912a.849.849,0,0,0-.374.583c-.039.329-.074,1.388-.074,1.753Z" transform="translate(-251.856 -356.747)"/><path class="g" d="M417.349,380.808c-1.232-.11-1.49-.328-1.49-1.752V358.407c.008-.079.013-.159.021-.235.151-1.276.523-1.5,1.682-2.153h-5.34l-2.8,1.314h2.854v.016l0-.013V379.86c0,.728-.147.839-1.007,1.932h6.607l1.38-.8C418.62,380.917,417.985,380.881,417.349,380.808Z" transform="translate(-324.41 -356.019)"/><path class="g" d="M440.719,389.243c-.406.218-.814.473-1.22.652a8.806,8.806,0,0,1-3.6.689,8.057,8.057,0,0,1-4.93-1.414,9.3,9.3,0,0,1-3.779-7.646,8.314,8.314,0,0,1,8.488-8.368,7.332,7.332,0,0,1,3.82,1.015,6,6,0,0,1,2.591,3.585l-8.709,3.443-2.854.217c.925,4.6,4.113,7.281,7.635,7.281a9.742,9.742,0,0,0,4.522-1.266Zm-3.482-10.8c.7-.253,1.074-.471,1.074-.978,0-1.448-1.667-3.116-3.671-3.116-1.484,0-4.262,1.124-4.262,5.036,0,.616.074,1.268.113,1.922Z" transform="translate(-332.592 -364.118)"/><g transform="translate(110.598 9.038)"><path class="g" d="M457.952,373.4v2.391h-.3V373.4h-.809v-.248h1.915v.248Z" transform="translate(-456.846 -373.156)"/><path class="g" d="M463.336,375.795v-2.413h-.014l-.754,2.413h-.232l-.76-2.413h-.009v2.413h-.27v-2.638h.462l.688,2.133h.009l.677-2.133h.469v2.638Z" transform="translate(-458.896 -373.156)"/></g></g><g transform="translate(83.807 17.776)"><path class="h" d="M259.323,337.479h-1.854a11.8,11.8,0,0,0-.528-2.119h-2.678a10.747,10.747,0,0,0-.545,2.119h-1.744q0-.221,1.353-3.626a28.072,28.072,0,0,0,1.354-3.75h2.191a30.809,30.809,0,0,0,1.226,3.7A31.862,31.862,0,0,1,259.323,337.479Zm-2.678-3.2a31.507,31.507,0,0,1-.991-3.162h-.093a32.6,32.6,0,0,1-1.026,3.162Z" transform="translate(-251.974 -329.933)"/><path class="h" d="M274.139,337.479h-1.432a13.739,13.739,0,0,0-1.594-2.453,13.427,13.427,0,0,1-1.9-3.2h-.093a19.509,19.509,0,0,1,.145,2.243q0,1.4.081,3.411H267.92q.087-1.756.087-3.858,0-2.068-.087-3.518h1.722a10.593,10.593,0,0,0,1.431,2.4,14.021,14.021,0,0,1,1.75,3.02h.087a21.033,21.033,0,0,1-.139-2.266q0-1.535-.081-3.15h1.449q-.082,1.4-.081,3.518Q274.058,335.751,274.139,337.479Z" transform="translate(-259.317 -329.933)"/><path class="h" d="M289.576,333.505a4.123,4.123,0,0,1-1.055,2.81,3.724,3.724,0,0,1-2.956,1.2q-.858,0-2.365-.068.075-1.711.076-3.858,0-2.061-.076-3.518h1.014q.249,0,.742-.017t.643-.017a3.96,3.96,0,0,1,3.034,1.02A3.48,3.48,0,0,1,289.576,333.505Zm-1.583.244a2.691,2.691,0,0,0-.649-1.833,2.49,2.49,0,0,0-1.982-.745,6.282,6.282,0,0,0-.684.051q.058,1.134.058,2.368,0,1.354.058,2.685a3.929,3.929,0,0,0,.754.074,2.213,2.213,0,0,0,1.846-.757A2.875,2.875,0,0,0,287.993,333.749Z" transform="translate(-266.353 -329.902)"/><path class="h" d="M304.16,337.448h-1.716a10.993,10.993,0,0,0-1.032-2.475,1.365,1.365,0,0,0-1.159-.471q-.337,0-.644.006,0,1.456.052,2.94h-1.611q.075-1.711.075-3.858,0-2.061-.075-3.518h1q.174,0,.727-.017t1.023-.017q2.66,0,2.66,1.779a2,2,0,0,1-1.519,1.966v.085a1.8,1.8,0,0,1,1.026.892A19.5,19.5,0,0,1,304.16,337.448Zm-2.173-5.212q0-1.127-1.484-1.128a5.167,5.167,0,0,0-.962.08q.064.878.064,2.289.318.011.539.011Q301.986,333.488,301.986,332.236Z" transform="translate(-273.191 -329.902)"/><path class="h" d="M318.475,333.5a4.017,4.017,0,0,1-1.089,2.884,3.575,3.575,0,0,1-2.7,1.144,3.444,3.444,0,0,1-2.562-1.052,3.653,3.653,0,0,1-1.032-2.671,4.014,4.014,0,0,1,1.089-2.884,3.573,3.573,0,0,1,2.695-1.144,3.448,3.448,0,0,1,2.562,1.048A3.651,3.651,0,0,1,318.475,333.5Zm-1.6.164a2.88,2.88,0,0,0-.62-1.92,1.925,1.925,0,0,0-1.53-.737,1.779,1.779,0,0,0-1.437.742,2.916,2.916,0,0,0-.591,1.875,2.874,2.874,0,0,0,.623,1.917,1.925,1.925,0,0,0,1.527.739,1.778,1.778,0,0,0,1.437-.745A2.92,2.92,0,0,0,316.875,333.666Z" transform="translate(-279.198 -329.78)"/><path class="h" d="M329.445,337.479h-1.64q.075-1.756.076-3.858,0-2.068-.076-3.518h1.64q-.075,1.427-.075,3.518Q329.37,335.757,329.445,337.479Z" transform="translate(-286.892 -329.933)"/><path class="h" d="M340.974,333.505a4.122,4.122,0,0,1-1.055,2.81,3.724,3.724,0,0,1-2.956,1.2q-.858,0-2.365-.068.075-1.711.076-3.858,0-2.061-.076-3.518h1.014q.249,0,.742-.017t.643-.017a3.96,3.96,0,0,1,3.034,1.02A3.482,3.482,0,0,1,340.974,333.505Zm-1.582.244a2.694,2.694,0,0,0-.649-1.833,2.49,2.49,0,0,0-1.982-.745,6.269,6.269,0,0,0-.684.051q.058,1.134.058,2.368,0,1.354.058,2.685a3.928,3.928,0,0,0,.754.074,2.214,2.214,0,0,0,1.846-.757A2.875,2.875,0,0,0,339.392,333.749Z" transform="translate(-290.02 -329.902)"/><path class="h" d="M360.8,337.479h-1.854a11.724,11.724,0,0,0-.528-2.119h-2.678a10.724,10.724,0,0,0-.545,2.119H353.45q0-.221,1.353-3.626a28,28,0,0,0,1.353-3.75h2.191a30.759,30.759,0,0,0,1.226,3.7A31.955,31.955,0,0,1,360.8,337.479Zm-2.678-3.2a31.623,31.623,0,0,1-.992-3.162h-.092a32.6,32.6,0,0,1-1.026,3.162Z" transform="translate(-298.701 -329.933)"/><path class="h" d="M374.9,332a2.194,2.194,0,0,1-1.029,2,4.655,4.655,0,0,1-2.523.646q-.273,0-.389-.011,0,1.065.064,2.81H369.4q.075-1.637.076-3.858,0-2.039-.076-3.518H370.4q.214,0,.823-.017t1.055-.017a3.374,3.374,0,0,1,1.86.487A1.637,1.637,0,0,1,374.9,332Zm-1.5.311q0-1.212-1.646-1.212a4.738,4.738,0,0,0-.869.085q.064,1.07.064,2.424c.1.008.209.012.336.012Q373.407,333.624,373.407,332.315Z" transform="translate(-306.043 -329.902)"/><path class="h" d="M387.786,332a2.195,2.195,0,0,1-1.028,2,4.659,4.659,0,0,1-2.525.646c-.182,0-.311,0-.388-.011q0,1.065.064,2.81H382.28q.075-1.637.076-3.858,0-2.039-.076-3.518h1.008q.215,0,.823-.017t1.055-.017a3.374,3.374,0,0,1,1.86.487A1.636,1.636,0,0,1,387.786,332Zm-1.495.311q0-1.212-1.646-1.212a4.737,4.737,0,0,0-.869.085q.064,1.07.064,2.424.145.012.336.012Q386.291,333.624,386.291,332.315Z" transform="translate(-311.976 -329.902)"/><path class="h" d="M407.253,333.5a4.014,4.014,0,0,1-1.09,2.884,3.573,3.573,0,0,1-2.695,1.144,3.444,3.444,0,0,1-2.562-1.052,3.656,3.656,0,0,1-1.032-2.671,4.016,4.016,0,0,1,1.089-2.884,3.576,3.576,0,0,1,2.7-1.144,3.449,3.449,0,0,1,2.562,1.048A3.653,3.653,0,0,1,407.253,333.5Zm-1.6.164a2.878,2.878,0,0,0-.62-1.92,1.924,1.924,0,0,0-1.53-.737,1.78,1.78,0,0,0-1.438.742,2.916,2.916,0,0,0-.591,1.875,2.874,2.874,0,0,0,.623,1.917,1.924,1.924,0,0,0,1.527.739,1.776,1.776,0,0,0,1.437-.745A2.916,2.916,0,0,0,405.654,333.666Z" transform="translate(-320.078 -329.78)"/><path class="h" d="M422.8,337.479h-1.431a13.735,13.735,0,0,0-1.594-2.453,13.436,13.436,0,0,1-1.9-3.2h-.092a19.649,19.649,0,0,1,.144,2.243q0,1.4.082,3.411h-1.426q.087-1.756.087-3.858,0-2.068-.087-3.518h1.721a10.611,10.611,0,0,0,1.432,2.4,14.017,14.017,0,0,1,1.75,3.02h.087a20.877,20.877,0,0,1-.139-2.266q0-1.535-.081-3.15H422.8q-.081,1.4-.081,3.518Q422.722,335.751,422.8,337.479Z" transform="translate(-327.772 -329.933)"/></g></svg>