<?xml version="1.0" encoding="utf-8"?>
<!-- Generator: Adobe Illustrator 27.5.0, SVG Export Plug-In . SVG Version: 6.00 Build 0)  -->
<svg version="1.1" id="Design" xmlns="http://www.w3.org/2000/svg" xmlns:xlink="http://www.w3.org/1999/xlink" x="0px" y="0px"
	 viewBox="0 0 2000 2000" style="enable-background:new 0 0 2000 2000;" xml:space="preserve">
<rect style="fill:#FFFFFF;" width="2000" height="2000"/>
<g>
	<path style="fill:#29395D;" d="M717.515,2000c-41.387,0-82.774,0-124.161,0c-7.456-4.672-11.437-12.363-16.335-19.176
		c-27.522-38.279-49.67-79.708-71.916-121.173c-46.539-86.745-79.284-178.911-104.452-273.472
		c-19.562-73.501-36.298-147.984-46.115-223.648c-5.133-39.562-5.116-79.155,1.205-118.802
		c7.162-44.916,28.752-80.909,63.308-109.832c32.784-27.44,68.183-51.134,104.456-73.583c23.486-14.535,46.511-29.66,67.361-47.897
		c7.363-6.441,10.334-5.558,12.736,3.875c4.657,18.283,11.111,35.914,18.329,53.311c3.714,8.951,2.304,11.454-7.044,14.194
		c-12.479,3.658-13.275,5.916-5.777,17.219c9.222,13.902,20.779,25.88,31.792,38.305c32.878,37.095,62.303,76.989,93.538,115.416
		c16.604,20.426,33.891,40.157,52.933,58.462c32.889,31.617,60.972,67.392,85.965,105.469c29.412,44.81,55.734,91.54,83.867,137.149
		c31.93,51.764,63.869,103.535,101.31,151.623c1.347,1.73,2.638,3.506,3.785,5.383c3.32,5.43,1.611,9.025-4.241,10.559
		c-8.185,2.146-16.444,4.03-24.777,5.536c-55.856,10.103-110.77,24.546-166.306,36.144c-21.866,4.567-43.82,8.335-66.082,7.698
		c-21.833-0.625-42.216-6.662-57.033-24.365c-7.936-9.482-12.728-20.935-17.393-32.155c-19.747-47.495-36.289-95.936-47.769-146.303
		c-10.16-44.576-19.675-89.346-31.419-133.561c-4.271-16.078-11.007-31.305-17.937-48.746c1.755,8.657,4.054,14.908,6.084,21.201
		c20.047,62.138,30.86,126.607,47.95,189.475c12.51,46.02,28.371,90.927,48.112,134.416c12.964,28.559,36.277,39.836,66.231,40.977
		c31.111,1.185,60.759-7.05,90.941-12.594c59.529-10.934,117.846-27.555,177.641-37.069c15.467-2.461,31.049-4.062,46.349-7.683
		c9.996-2.366,14.369,0.585,19.667,11.488c8.233,16.942,10.937,35.236,12.775,53.687c4.019,40.342,1.286,80.805,1.842,121.209
		c0.129,9.406-1.935,18.689-4.75,27.707c-1.974,6.327-5.982,9.45-13.011,10.058c-33.665,2.909-67.244,6.875-100.981,8.875
		c-11.875,0.704-23.766,2.446-35.6,2.155c-35.709-0.878-70.349,5.105-105.139,12.512c-50.888,10.834-101.919,20.981-152.516,33.151
		C729.191,1998.575,723.154,1998.03,717.515,2000z"/>
	<path style="fill:#010001;" d="M717.515,2000c9.94-4.772,20.868-6.107,31.396-8.705c22.736-5.61,45.583-10.805,68.489-15.68
		c19.224-4.091,38.626-7.335,57.892-11.242c15.301-3.102,30.587-6.341,45.743-10.074c13.156-3.24,26.637-4.22,39.934-4.609
		c20.96-0.613,41.952-0.913,62.827-2.656c19.901-1.661,39.894-2.051,59.731-4.888c15.126-2.163,30.445-3.02,45.695-4.252
		c7.177-0.58,8.556-1.048,10.665-8.057c2.612-8.679,4.48-17.605,4.513-26.709c0.12-33.852,0.995-67.739-0.277-101.544
		c-0.889-23.615-2.818-47.489-12.729-69.665c-0.127-0.284-0.159-0.609-0.278-0.897c-5.527-13.51-7.79-14.879-21.813-11.322
		c-14.891,3.777-30.187,4.836-45.267,7.315c-20.655,3.396-41.038,8.12-61.578,12.072c-25.465,4.899-50.212,13.041-75.832,17.124
		c-29.012,4.624-57.287,12.89-86.277,17.348c-20.052,3.084-40.419,5.11-60.646,0.684c-5.467-1.197-10.793-3.192-16.046-5.182
		c-15.539-5.888-25.766-17.424-32.696-32.031c-10.33-21.774-19.963-43.833-27.145-66.917c-7.337-23.58-17.908-46.179-22.719-70.506
		c-7.099-35.902-18.773-70.646-26.207-106.443c-2.665-12.832-4.551-25.873-8.026-38.478c-5.151-18.681-11.411-37.056-17.176-55.569
		c-1.721-5.526-3.295-11.088-3.392-18.474c3.667,3.217,5.32,5.952,6.64,9.114c10.617,25.44,20.762,51.194,25.189,78.431
		c6.233,38.344,18.915,75.113,25.986,113.19c4.936,26.58,14.696,51.606,23.036,77.149c8.186,25.074,18.388,49.153,29.179,73.14
		c9.373,20.835,25.675,31.766,46.943,36.516c12.264,2.739,24.665,2.634,37.269,1.156c55.364-6.494,109.015-21.203,163.243-33.183
		c23.766-5.251,47.692-9.774,71.565-14.534c2.483-0.495,4.922-0.849,7.407-2.733c-2.416-6.781-7.732-11.718-11.9-17.35
		c-27.007-36.491-52.58-73.916-75.996-112.848c-23.222-38.609-48.161-76.212-70.581-115.269
		c-18.437-32.117-38.667-62.876-60.89-92.378c-11.282-14.978-23.247-29.395-35.926-43.312c-13.294-14.591-27.964-27.729-41.4-42.137
		c-16.457-17.649-31.473-36.468-46.44-55.327c-21.576-27.187-43.111-54.401-65.029-81.316
		c-14.029-17.228-30.343-32.47-43.359-50.552c-3.295-4.578-6.733-9.069-9.06-14.235c-3.108-6.9-1.755-9.745,5.446-11.581
		c3.625-0.924,7.306-1.65,10.986-2.34c3.927-0.737,4.214-2.803,2.773-6.099c-2.755-6.301-5.263-12.711-7.868-19.078
		c-5.696-13.92-10.346-28.158-13.135-42.971c-0.153-0.811-0.976-1.496-1.738-2.606c-8.138,6.523-16.136,12.873-24.069,19.303
		c-16.341,13.246-34.418,23.89-52.134,35.102c-33.575,21.247-67.005,42.709-97.339,68.588
		c-15.041,12.832-29.576,25.989-40.696,42.626c-14.39,21.529-22.023,45.341-26.302,70.63c-2.875,16.993-4,34.145-4.969,51.238
		c-0.828,14.605,0.197,29.425,1.67,44.022c1.752,17.365,3.962,34.699,6.702,51.976c4.16,26.238,9.819,52.143,15.46,78.067
		c7.634,35.086,14.739,70.299,23.099,105.212c8.892,37.134,21.656,73.136,34.095,109.213
		c12.649,36.687,25.603,73.253,41.455,108.703c11.892,26.595,25.271,52.457,39.391,77.937c7.742,13.971,14.154,28.631,22.296,42.408
		c15.937,26.967,33.098,53.112,51.735,78.285c1.686,2.278,3.342,4.521,4.327,7.197c-2.508,0-5.017,0-7.525,0
		c-4.631-2.219-7.934-5.81-11.03-9.853c-15.555-20.311-28.685-42.229-43.167-65.235c0.157,0.41-0.698,2.548,0.2,1.672
		c0.418-0.407,0.613-0.245,0.888,0.344c0.54,1.151,0.872,2.336,0.901,3.598c0.505,22.21-2.004,44.227-4.278,66.257
		c-0.131,1.271-1.045,2.242-1.832,3.216c-2.508,0-5.017,0-7.525,0c2.466-10.11,2.299-20.522,3.331-30.785
		c1.723-17.134,2.528-34.358,4.038-51.516c0.358-4.069-0.976-7.211-2.706-10.615c-15.038-29.578-31.169-58.594-45.505-88.534
		c-20.85-43.543-36.945-88.939-53.375-134.262c-21.513-59.348-36.487-120.316-48.838-182.072
		c-5.216-26.084-11.054-52.031-15.766-78.231c-2.65-14.733-7.426-29.086-9.599-43.995c-7.423-50.923-8.679-101.715,2.675-152.308
		c7.937-35.367,25.339-65.06,52.622-89.02c37.339-32.791,78.135-60.741,120.612-86.318c25.05-15.083,48.785-31.836,70.028-52.025
		c7.104-6.752,13.275-14.157,18.17-22.637c7.055-12.222,15.253-23.698,23.102-35.405c9.802-14.619,22.912-22.859,40.948-21.835
		c3.306,0.188,5.145-0.865,6.393-4.014c3.689-9.306,7.607-18.524,11.552-27.726c0.817-1.906,0.82-3.577-0.059-5.375
		c-11.026-22.529-11.086-46.598-9.958-70.838c0.04-0.854-0.252-1.723-0.4-2.648c-11.57,6.841-18.573,6.184-29.561-2.609
		c-7.532-6.027-12.762-13.828-16.573-22.494c-9.737-22.145-16.7-45.193-20.861-69.013c-1.511-8.648-1.393-17.53-0.314-26.265
		c1.345-10.895,5.5-20.534,14.079-27.62c0.142-1.98-1.107-3.005-2.11-4.151c-9.641-11.024-14.592-24.161-15.828-38.46
		c-2.805-32.451,0.347-64.444,9.263-95.789c3.717-13.068,9.983-24.967,18.034-35.907c14.644-19.897,33.993-32.24,58.623-35.38
		c15.135-1.93,29.247-6.423,42.615-13.689c23.312-12.671,48.312-18.757,74.835-18.677c20.673,0.063,41.408-1.275,61.965,1.817
		c44.8,6.737,84.722,24.292,118.181,55.159c20.29,18.718,33.284,42.248,40.913,68.567c5.38,18.557,3.94,37.278-2.134,55.515
		c-3.358,10.081-7.421,19.932-11.285,29.84c-2.5,6.41-5.046,12.792-6.885,20.204c11.526-0.7,16.567,6.967,20.347,15.839
		c6.832,16.042,7.326,32.858,5.393,49.872c-1.861,16.375-6.73,31.784-15.107,46.045c-3.353,5.709-5.194,12.017-7.217,18.286
		c-2.916,9.038-6.597,17.803-15.98,22.162c-3.161,1.468-2.412,4.065-2.656,6.36c-1.655,15.573-3.933,31.007-7.118,46.383
		c-4.443,21.444-13.393,40.267-28.312,56.283c-2.346,2.519-4.207,5.517-6.683,7.884c-11.737,11.222-17.298,25.769-22.414,40.626
		c-0.956,2.776-1.499,5.435-0.772,8.25c2.111,8.178,4.17,16.373,6.474,24.497c2.083,7.346,7.194,12.474,13.489,16.276
		c35.104,21.199,69.886,42.997,109.362,55.702c16.387,5.274,32.365,11.701,47.471,20.14c26.22,14.647,44.778,35.757,55.108,64.078
		c9.263,25.395,14.536,51.797,19.864,78.168c6.201,30.692,10.868,61.639,14.667,92.728c4.139,33.882,11.376,67.284,16.181,101.063
		c3.748,26.348,7.255,52.734,10.519,79.147c5.069,41.023,8.596,82.224,14.459,123.163c1.635,11.416,2.459,22.912,6.059,35.078
		c4.191-2.909,6.641-6.438,8.888-9.858c11.765-17.909,28.469-28.535,48.746-34.492c32.769-9.628,65.884-17.675,99.668-22.788
		c17.985-2.722,35.711-6.46,53.023-12.096c8.35-2.719,16.887-4.645,25.6-5.847c4.381-0.605,8.759-0.787,13.128-0.39
		c12.897,1.173,16.816,4.961,18.641,17.78c3.015,0.136,5.065-2.043,7.403-3.315c25.208-13.715,52.196-22.592,79.836-29.78
		c7.869-2.046,15.614-4.564,23.462-6.696c9.309-2.529,17.157-0.666,20.589,4.669c3.425,5.323,1.981,13.476-3.993,20.786
		c-6.255,7.655-14.073,13.527-23.081,17.39c-23.163,9.932-42.407,25.062-60.083,42.77c-16.483,16.511-36.691,28.186-56.014,41.002
		c-46.43,30.795-96.666,54.016-148.01,75.051c-17.161,7.031-32.937,16.678-49.354,25.112c-6.403,3.289-12.606,7.001-19.151,9.969
		c-4.077,1.849-5.658,4.083-4.941,8.628c2.095,13.293,3.646,26.673,5.765,39.962c4.59,28.781,8.038,57.67,9.542,86.792
		c1.181,22.857,4.379,45.492,8.171,68.047c0.464,2.762,0.548,5.588,0.808,8.385c-2.508,0-5.017,0-7.525,0
		c-4.649-7.447-4.844-16.073-6.219-24.33c-5.509-33.082-5.656-66.683-9.425-99.945c-2.645-23.341-6.026-46.571-9.176-69.839
		c-0.866-6.395-3.39-7.113-8.692-4.498c-19.379,9.557-38.386,19.891-58.362,28.209c-4.503,1.875-6.449,5.136-7.291,9.969
		c-2.03,11.664-0.512,22.504,2.613,34.074c10.658,39.462,26.207,77.052,41.253,114.874c1.459,3.667,3.854,7.448,0.742,11.487
		c-2.508,0-5.017,0-7.525,0c-2.167-1.882-3.657-4.195-4.801-6.838c-14.437-33.365-27.156-67.325-35.934-101.73
		c-0.744,8.11-2.01,17.158-4.467,25.938c-2.513,8.978-8.071,12.021-17.142,9.869c-6.408-1.52-12.534-4.028-18.621-6.452
		c-6.325-2.519-10.083-1.757-11.4,5.596c-0.716,3.994-2.531,7.716-4.519,11.297c-2.786,5.019-6.849,7.864-12.713,8.356
		c-47.972,4.025-95.692,10.948-143.958,11.616c-38.643,0.534-76.216,8.248-114.023,15.983c-41.35,8.46-82.2,19.531-124.079,25.393
		c-2.906,0.403-6.008-0.929-8.751,0.971C733.82,2000,725.667,2000,717.515,2000z"/>
	<path style="fill:#29395D;" d="M749.672,1998.301c20.071-4.596,40.228-8.848,60.19-13.877c23.931-6.029,48.428-9.08,72.467-14.491
		c14.913-3.357,29.589-7.744,44.747-10.04c9.252-1.401,18.485-3.158,27.856-3.074c19.409,0.174,38.791-1.231,58.085-2.498
		c24.856-1.632,49.753-3.469,74.548-6.481c15.137-1.839,30.288-4.507,45.632-4.366c5.124,0.047,7.862-2.408,10.242-6.639
		c3.889-6.913,4.445-14.901,7.536-22.313c7.957,2.798,15.596,5.49,23.24,8.167c2.059,0.721,4.101,1.527,6.209,2.061
		c8.909,2.255,13.285-0.175,14.778-8.941c1.726-10.133,4.243-20.184,4.091-30.583c-0.022-1.479-0.232-3.121,1.711-4.722
		c2.686,1.722,1.78,4.88,2.362,7.227c7.468,30.099,18.136,59.104,29.532,87.887c3.208,8.104,7.916,15.64,9.48,24.382
		c-164.294,0-328.589,0-492.883,0c-0.635-0.447-0.82-0.847-0.558-1.202C749.183,1998.468,749.427,1998.301,749.672,1998.301z"/>
	<path style="fill:#29395D;" d="M1249.904,2000c-0.781-8.6-5.228-15.969-8.362-23.707c-8.562-21.141-17.253-42.242-24.663-63.805
		c-4.862-14.149-7.824-28.961-12.891-43.024c-2.331-6.469-3.287-12.62-2.729-19.156c0.45-5.27,1.88-10.439,1.648-15.806
		c-0.122-2.83,1.412-4.463,4.111-5.516c23.064-8.995,44.663-21.085,66.909-31.811c7.07-3.409,7.147-2.991,8.087,5.093
		c1.799,15.47,4.182,30.87,6.122,46.325c1.785,14.217,3.623,28.438,4.879,42.707c3.004,34.13,3.616,68.51,11.12,102.154
		c0.469,2.102,0.233,4.361,0.325,6.546C1286.275,2000,1268.089,2000,1249.904,2000z"/>
	<path style="fill:#29395D;" d="M527.511,2000c0.006-14.956,2.142-29.762,3.119-44.648c0.49-7.464,0.477-14.961,0.639-22.444
		c0.071-3.301,0.012-6.604,0.733-10.109c17.959,25.924,33.502,53.233,53.828,77.202C566.39,2000,546.95,2000,527.511,2000z"/>
	<path style="fill:#151829;" d="M749.672,1998.301c-0.092,0.563-0.15,1.129-0.175,1.699c-2.508,0-5.017,0-7.525,0
		C744.075,1997.333,746.975,1998.28,749.672,1998.301z"/>
	<path style="fill:#221D17;" d="M693.096,815.919c0.665-15.392,0.303-30.626-5.491-45.276c-2.209-5.587-1.94-11.62-2.136-17.582
		c-0.389-11.84,0.78-23.647-1.521-35.541c-4.278-22.111-15.502-40.039-33.578-52.347c-20.635-14.05-27.655-33.729-28.708-56.779
		c-1.261-27.618,1.367-54.968,9.452-81.465c8.11-26.581,22.301-48.814,48.25-61.679c8.823-4.374,18.383-6.32,27.918-7.403
		c13.668-1.553,26.127-6.266,38.044-12.506c15.064-7.889,30.575-14.347,47.443-16.887c9.223-1.389,18.552-2.241,27.866-2.798
		c7.497-0.448,15.043-0.061,22.567-0.094c33.195-0.149,65.052,5.867,95.64,19.188c22.641,9.86,43.49,22.481,60.538,40.142
		c19.001,19.683,31.898,43.593,37.238,70.438c3.507,17.63,0.226,35.445-6.631,52.367c-6.678,16.478-14.032,32.725-17.757,50.267
		c-3.751,17.662-7.82,35.259-10.517,53.128c-0.093,0.616-0.115,1.254-0.082,1.877c1.238,23.801-2.098,47.452-2.221,71.245
		c-0.152,29.352-4.142,58.381-12.882,86.633c-3.223,10.419-8.59,19.564-15.311,27.753c-14.26,17.376-28.348,34.901-44.451,50.737
		c-8.006,7.873-15.706,15.991-24.925,22.433c-11.884,8.304-25.57,11.875-39.692,12.284c-37.815,1.096-72.472-9.28-102.353-32.651
		c-19.242-15.05-36.206-32.957-47.943-54.494c-11.858-21.76-20.19-45.057-18.785-70.645
		C693.259,822.824,693.096,819.367,693.096,815.919z"/>
	<path style="fill:#29395D;" d="M1075.525,1717.627c-8.912-7.412-14.477-16.878-20.913-25.557
		c-28.345-38.218-54.801-77.715-79.084-118.638c-24.747-41.703-51.42-82.229-75.529-124.325
		c-14.488-25.297-32.402-48.276-49.671-71.69c-18.271-24.773-38.944-47.351-61.016-68.728
		c-27.719-26.848-51.785-56.856-75.497-87.191c-22.333-28.57-44.603-57.191-68.262-84.705c-11.202-13.027-23.132-25.485-32.65-39.91
		c-3.601-5.457-3.445-6.28,2.954-8.096c2.691-0.764,5.542-0.947,8.26-1.636c6.888-1.746,8.726-4.876,6.194-11.65
		c-2.296-6.145-5.324-12.012-7.88-18.065c-6.694-15.85-13.026-31.821-16.947-48.653c-0.762-3.271-1.263-6.203,1.456-8.653
		c9.498-8.56,14.636-20.228,21.766-30.471c6.969-10.011,13.284-20.465,20.71-30.178c2.349-3.072,5.017-5.546,8.21-7.57
		c5.055-3.205,5.719-3.219,8.42,2.331c6.73,13.831,14.463,27.061,23.289,39.634c14.915,21.248,30.111,42.299,44.946,63.602
		c14.125,20.284,28.277,40.653,39.878,62.461c23.858,44.852,51.03,87.561,80.147,129.119c18.668,26.645,37.162,53.417,55.404,80.355
		c12.635,18.659,23.743,38.283,35.02,57.785c7.363,12.733,15.047,25.288,21.35,38.616c20.625,43.61,38.637,88.188,52.599,134.453
		c13.1,43.408,27.305,86.486,41.352,129.603c4.55,13.966,10.138,27.594,15.262,41.372
		C1075.928,1712.954,1077.25,1714.54,1075.525,1717.627z"/>
	<path style="fill:#29395D;" d="M1189.796,1708.467c-8.729-2.539-17.226-0.771-25.74,1.28c-8.5,2.047-17.004,4.116-25.58,5.791
		c-2.955,0.577-6.79,2.631-9.03,0.49c-6.536-6.249-14.127-3.129-21.584-3.476c-1.897-2.747-0.305-5.38,0.763-7.803
		c10.186-23.118,14.182-47.818,18.765-72.382c2.748-14.729,5.951-29.375,8.519-44.134c1.441-8.285,2.725-16.713,2.83-25.093
		c0.343-27.575,1.505-55.246-0.235-82.716c-2.362-37.281-0.037-74.542-1.725-111.751c-0.833-18.359-2.014-36.758-4.769-55.025
		c-2.093-13.875-3.214-27.918-4.261-41.925c-2.492-33.34-9.089-65.581-24.553-95.555c-15.79-30.606-33.048-60.444-47.886-91.55
		c-2.951-6.187-6.107-12.278-9.526-19.129c6.199,0.252,10.971,3.412,16.079,5.135c18.093,6.103,36.074,12.586,52.712,22.141
		c29.595,16.998,47.676,42.509,55.922,75.459c8.57,34.247,16.037,68.692,21.274,103.627c2.867,19.128,6.484,38.144,9.804,57.203
		c2.731,15.675,3.94,31.553,6.74,47.236c3.507,19.646,6.375,39.414,9.121,59.184c2.362,16.999,4.091,34.084,6.243,51.113
		c1.33,10.527,2.651,21.075,4.247,31.542c1.464,9.604,1.619,19.27,2.848,28.877c3.086,24.134,5.891,48.307,8.88,72.455
		c1.771,14.309,3.631,28.471,7.561,42.33c0.688,2.428,0.243,4.105-1.767,5.727c-3.653,2.947-7.105,6.143-10.641,9.234
		c-0.672,0.422-1.228,0.962-1.668,1.622l-0.126,0.113c-0.693,0.515-1.331,1.09-1.915,1.726l-0.005,0.001
		c-0.659,0.612-1.262,1.282-1.982,1.827l0.049-0.048c-0.567,0.724-1.193,1.386-1.971,1.89l0.061-0.075
		c-0.833,1.288-2.716,0.821-3.542,2.121l-0.103,0.068c-0.689,0.532-1.343,1.104-1.955,1.723l0.022-0.019
		c-0.631,0.65-1.236,1.328-1.997,1.835l0.062-0.072c-0.913,1.273-2.725,0.891-3.717,2.019l0.013-0.008
		c-0.659,0.696-1.36,1.338-2.229,1.769c-0.533-0.02-1.048,0.067-1.544,0.263c-0.653,0.569-1.317,1.127-1.991,1.672l0.064-0.071
		c-0.942,1.271-2.721,0.927-3.784,1.963l0.049-0.034c-0.946,1.207-2.743,0.827-3.712,1.992l-0.01,0.007
		c-0.675,0.65-1.352,1.298-2.177,1.763c-0.568,0.02-1.113,0.146-1.632,0.377c-0.671,0.463-1.277,0.999-1.807,1.619l-0.022,0.02
		c-0.677,0.584-1.274,1.256-1.985,1.802l0.047-0.045c-0.581,0.708-1.171,1.407-1.976,1.88l-0.013-0.083
		C1192.689,1707.989,1190.558,1707.081,1189.796,1708.467z"/>
	<path style="fill:#B7B7BF;" d="M958.212,1065.178c21.369,34.672,35.781,72.392,46.905,111.272
		c18.432,64.422,33.571,129.564,42.131,196.209c6.032,46.966,10.266,93.945,11.152,141.29c0.442,23.609-1.892,46.9-4.842,70.215
		c-0.707,5.584-0.972,11.223-1.441,16.837c-2.195,1.954,1.691,6.55-3.188,7.339c-8.471-26.861-17.279-53.621-25.351-80.602
		c-24.746-82.707-63.459-158.525-112.342-229.389c-23.484-34.044-47.534-67.696-70.551-102.067
		c-3.696-5.519-4.289-9.282-1.257-15.711c14.959-31.715,32.985-61.936,46.09-94.533c3.25-8.085,6.036-16.357,9.312-25.3
		c7.104,7.744,12.796,15.86,18.08,24.199c10.911,17.218,22.753,33.783,34.638,50.319c2.731,3.8,5.936,7.274,9.084,10.753
		c1.788,1.976,4.217,2.877,6.831,1.882c2.863-1.089,3.021-3.757,2.977-6.302c-0.174-10.055-1.764-19.968-3.287-29.871
		c-2.188-14.229-4.623-28.419-6.952-42.626C955.555,1067.112,954.641,1064.994,958.212,1065.178z"/>
	<path style="fill:#29395D;" d="M945.923,1008.4c26.14,18.294,53.894,33.861,82.308,48.251c7.381,3.738,11.16,10.186,14.074,16.96
		c6.812,15.837,15.961,30.488,22.664,46.37c8.176,19.373,20.239,36.718,29.532,55.545c12.724,25.779,21.467,52.547,23.984,81.331
		c2.12,24.245,4.508,48.482,7.517,72.63c3.378,27.105,3.529,54.278,3.245,81.491c-0.081,7.805-1.967,15.485-1.577,23.369
		c1.204,24.346,1.976,48.709,3.251,73.058c1.803,34.43,0.365,68.756-7.712,102.55c-3.699,15.476-6.65,31.13-8.821,46.91
		c-2.714,19.727-12.343,37.353-17.18,56.449c-1.098,4.337-5.944,2.292-9.018,3.216c-2.267,0.683-2.97-1.447-3.628-3.316
		c-8.099-23.006-16.169-46.022-24.45-68.963c-1.979-5.483-2.75-11.084-1.713-16.609c2.553-13.604,1.062-27.43,3.1-41.111
		c2.618-17.573,3.789-35.366,5.382-53.083c0.447-4.976,0.955-10.153,0.09-14.997c-1.728-9.676-1.076-19.365-1.317-29.042
		c-0.739-29.693-3.433-59.196-7.223-88.656c-4.023-31.264-8.599-62.446-13.903-93.498c-4.47-26.165-11.8-51.756-17.637-77.647
		c-7.793-34.568-18.135-68.293-31.025-101.227c-9.126-23.317-19.185-46.227-32.704-67.498c-9.837-15.477-16.19-32.389-17.804-50.845
		C945.313,1009.513,945.724,1008.947,945.923,1008.4z"/>
	<path style="fill:#DAB392;" d="M1241.13,1678.561c9.682-6.607,17.924-14.878,24.524-24.369
		c12.64-18.175,29.861-28.738,50.869-34.625c32.286-9.047,64.748-17.176,97.959-21.977c16.147-2.334,32.065-5.502,47.629-10.478
		c12.266-3.922,24.742-6.927,37.779-6.467c14.185,0.5,17.394,6.223,10.155,18.604c-4.18,7.149-10.083,12.727-17.234,16.974
		c-11.91,7.074-24.79,11.984-37.67,16.871c-18.437,6.997-36.941,13.817-55.389,20.786c-7.35,2.777-14.291,6.395-20.769,10.86
		c-2.499,1.723-5.464,3.03-6.552,6.877c3.474,0.534,6.276-0.735,9.002-1.969c28.84-13.057,58.936-22.923,88.245-34.785
		c9.289-3.759,18.573-7.542,27.083-12.952c5.333-3.39,10.436-7.145,14.013-12.363c3.48-5.076,8.025-8.631,13.222-11.645
		c22.054-12.789,45.24-22.873,69.921-29.403c12.407-3.283,24.843-6.459,36.976-10.688c3.589-1.251,7.25-2.099,11.063-1.377
		c4.679,0.886,6.228,3.22,5.613,8.009c-0.599,4.66-3.348,8.017-6.597,11.061c-6.466,6.056-13.781,10.936-21.912,14.357
		c-20.856,8.774-38.618,21.897-54.392,37.906c-17.119,17.374-38.195,29.32-58.235,42.723
		c-46.597,31.166-97.218,54.348-148.871,75.502c-16.297,6.674-31.278,15.831-46.686,24.182
		c-33.331,18.065-67.742,33.917-102.01,50.067c-1.412,0.665-2.8,1.398-5.229,0.819c-0.688-6.061-1.61-12.403-2.098-18.779
		c-2.058-26.89-6.668-53.416-11.211-79.953c-0.758-4.427-1.211-8.692,3.326-11.561c0.411-1.829,2.713-0.995,3.409-2.421l0.108-0.071
		c0.782-0.452,1.337-1.206,2.149-1.619l-0.129,0.099c0.767-1.328,2.714-0.812,3.441-2.203l0.171-0.085
		c0.82-0.397,1.35-1.232,2.257-1.499l-0.181,0.135c0.849-1.482,2.683-1.134,3.831-2.061l-0.118,0.069
		c0.943-1.339,2.719-1.031,3.87-1.958l-0.113,0.064c0.943-1.322,2.722-1.005,3.85-1.965l-0.095,0.055
		c0.89-1.283,2.726-0.878,3.673-2.058l0.017-0.009c0.708-0.621,1.3-1.413,2.323-1.568l-0.201,0.177
		c0.566-1.659,2.616-1.151,3.478-2.38l0.031-0.021c0.716-0.564,1.284-1.311,2.128-1.716l-0.124,0.106
		c0.523-0.867,1.151-1.607,2.203-1.839l-0.184,0.18c1.229-2.085,3.778-2.532,5.292-4.262l0.069-0.052
		c0.743-0.498,1.317-1.199,2.046-1.714l-0.07,0.059c0.589-0.753,1.218-1.46,2.132-1.834l-0.165,0.143
		C1239.235,1679.489,1240.022,1678.831,1241.13,1678.561z"/>
	<path style="fill:#ABAAB0;" d="M701.356,894.541c16.102,26.111,35.295,48.609,59.483,66.659c1.503,1.121,3.157,2.184,4.298,3.624
		c10.577,13.358,25.307,21.247,39.226,30.288c25.726,16.709,52.062,32.486,77.07,50.294c1.53,1.09,2.849,2.531,4.479,3.416
		c3.855,2.094,3.73,5.003,2.706,8.729c-4.085,14.862-9.815,29.104-16.651,42.842c-12.835,25.794-26.117,51.366-39.235,77.019
		c-0.396,0.775-1.032,1.427-1.592,2.185c-3.487-1.17-4.403-4.468-6.105-6.938c-14.959-21.718-27.055-45.121-39.971-68.048
		c-25.275-44.864-54.729-86.956-85.598-128.09c-6.78-9.034-12.986-18.445-18.968-28.015c-1.378-2.204-2.385-4.094-0.711-6.817
		c8.744-14.221,14.69-29.708,20.151-45.402C700.131,895.739,700.706,895.324,701.356,894.541z"/>
	<path style="fill:#B7B7BF;" d="M1134.392,1721.596c9.478-1.894,18.259-3.688,27.056-5.391c3.987-0.772,7.988-1.548,12.019-2.005
		c8.686-0.984,8.733-0.905,10.026,7.62c2.344,15.452,4.511,30.933,6.981,46.365c3.566,22.279,6.421,44.646,4.912,67.229
		c-1.584,23.702-2.331,47.488-5.98,71.026c-1.902,12.268-1.895,12.354-13.177,8.475c-7.092-2.439-14.127-5.045-21.231-7.447
		c-3.191-1.079-4.285-2.993-3.964-6.362c2.115-22.172,0.654-44.415,1.088-66.624c0.551-28.219-1.689-56.256-7.382-83.96
		C1142.724,1740.704,1139.098,1731.436,1134.392,1721.596z"/>
	<path style="fill:#DAB392;" d="M680.38,744.519c-2.291,14.757,2.203,28.557,6.152,42.391c1.772,6.21,0.801,11.67-2.739,16.927
		c-3.764,5.591-7.243,6.958-13.587,4.585c-8.628-3.227-14.507-9.637-19.137-17.323c-7.003-11.626-11.491-24.35-15.442-37.21
		c-5.974-19.447-12.037-38.917-10.617-59.744c0.641-9.403,3.615-17.639,9.715-24.877c2.865-3.399,4.9-4.159,9.114-1.292
		c24.45,16.633,36.944,39.351,36.546,69.021C680.351,739.504,680.38,742.011,680.38,744.519z"/>
	<path style="fill:#DAB392;" d="M800.293,981.976c12.733,3.055,25.352,6.481,38.38,8.356c33.531,4.825,62.471-3.625,86.162-28.38
		c1.498-1.565,3.225-2.913,4.845-4.362c3.542-0.12,3.535,1.773,2.432,4.287c-8.479,24.517-15.079,49.755-27.835,72.634
		c-0.762,1.367-1.403,2.802-2.178,4.161c-4.566,8.005-5.245,7.962-12.693,3.064c-16.73-11.003-32.866-22.852-50.573-32.453
		c-13.433-7.284-25.759-16.609-38.577-25.025c-0.53-0.516-0.701-1.026-0.514-1.53C799.929,982.226,800.112,981.976,800.293,981.976z
		"/>
	<path style="fill:#ABAAB0;" d="M957.85,1136.366c-21.537-26.838-38.907-55.345-59.125-83.001c5.953-3.583,8.45-9.591,11.404-15.342
		c9.016-17.555,16.265-35.836,22.451-55.012C936.445,991.64,958.622,1125.284,957.85,1136.366z"/>
	<path style="fill:#DAB392;" d="M1006.434,796.496c-2.344-31.415-0.236-61.378,2.704-91.274c1.347-13.692,4.263-27.2,7.397-40.621
		c0.43-1.841,0.794-3.646,1.988-5.201c3.531-4.593,6.787-4.841,10.833-0.633c3.101,3.226,4.984,7.178,6.4,11.377
		c9.833,29.16,7.024,57.464-6.438,84.75c-4.166,8.444-8.381,16.743-11.106,25.807
		C1016.34,786.929,1013.435,792.751,1006.434,796.496z"/>
	<path style="fill:#E3E3E3;" d="M680.81,925.973c-1.116,4.599-3.794,7.887-5.72,11.889c-3.559-2.496-4.655-6.063-6.56-9.521
		C672.174,925.114,676.279,925.55,680.81,925.973z"/>
	<path style="fill:#4D4C4E;" d="M1048.929,1608.341c2.851-1.67,1.199-5.295,3.188-7.339c0.811,3.968,0.702,7.913-0.179,11.983
		C1048.827,1612.657,1048.687,1610.623,1048.929,1608.341z"/>
	<path style="fill:#B4977F;" d="M932.112,961.877c-0.328-1.703-0.549-3.466-2.432-4.287c1.399-1.779,2.797-3.557,4.196-5.336
		c1.74-0.45,2.622-0.01,2.03,1.958C934.615,956.754,934.333,959.795,932.112,961.877z"/>
	<path style="fill:#7A7A7E;" d="M958.212,1065.178c-1.659,0.797-1.366,2.597-2.01,3.915c-1.958-2.651-2.042-5.588-1.378-8.731
		C957.316,1061.093,957.809,1063.104,958.212,1065.178z"/>
	<path style="fill:#5B4D43;" d="M935.906,954.212c-0.677-0.653-1.353-1.305-2.03-1.958c0.558-1.508,1.899-3.544,3.042-2.703
		C938.84,950.966,937.291,952.838,935.906,954.212z"/>
	<path style="fill:#55524F;" d="M796.473,982.389c-0.566-0.201-1.356-0.235-1.653-0.635c-0.722-0.973-3.678-0.881-2.035-2.824
		c0.973-1.151,2.776-0.025,3.774,1.286C797.584,980.981,797.555,981.706,796.473,982.389z"/>
	<path style="fill:#080608;" d="M1234.744,1683.92c-1.189,2.134-2.98,3.52-5.292,4.261
		C1229.996,1685.247,1231.969,1684.086,1234.744,1683.92z"/>
	<path style="fill:#887464;" d="M796.473,982.389c0.029-0.725,0.057-1.449,0.086-2.174c1.444,0.165,2.984,0.124,3.734,1.761
		c-0.012,0.761-0.025,1.521-0.037,2.282C798.995,983.635,797.734,983.012,796.473,982.389z"/>
	<path style="fill:#080608;" d="M1212.464,1699.157c-0.863,1.497-2.277,1.902-3.87,1.957
		C1209.308,1699.323,1210.781,1699.031,1212.464,1699.157z"/>
	<path style="fill:#080608;" d="M1216.019,1691.485c0.811-1.462,2.166-1.92,3.717-2.018
		C1219.034,1691.127,1217.615,1691.469,1216.019,1691.485z"/>
	<path style="fill:#080608;" d="M1225.397,1691.473c-0.668,1.51-1.93,2.153-3.478,2.379
		C1222.341,1691.982,1223.742,1691.542,1225.397,1691.473z"/>
	<path style="fill:#080608;" d="M1206.548,1697.072c0.832-1.483,2.219-1.893,3.784-1.962
		C1209.601,1696.785,1208.17,1697.112,1206.548,1697.072z"/>
	<path style="fill:#080608;" d="M1219.781,1695.252c-0.803,1.438-2.083,2.026-3.673,2.058
		C1216.793,1695.663,1218.176,1695.26,1219.781,1695.252z"/>
	<path style="fill:#080608;" d="M1202.886,1699.03c0.799-1.481,2.161-1.911,3.712-1.991
		C1205.866,1698.645,1204.461,1698.997,1202.886,1699.03z"/>
	<path style="fill:#080608;" d="M1216.202,1697.256c-0.849,1.506-2.248,1.933-3.85,1.965
		C1213.063,1697.445,1214.53,1697.149,1216.202,1697.256z"/>
	<path style="fill:#080608;" d="M1208.712,1701.046c-0.835,1.508-2.254,1.931-3.831,2.06
		C1205.513,1701.221,1207.002,1700.928,1208.712,1701.046z"/>
	<path style="fill:#080608;" d="M1202.634,1704.555c-0.785,1.3-1.893,2.095-3.441,2.203
		C1199.768,1705.13,1201.085,1704.662,1202.634,1704.555z"/>
	<path style="fill:#080608;" d="M1197.065,1708.349c-0.639,1.508-1.894,2.148-3.409,2.421c-0.063-0.78-0.126-1.559-0.188-2.339
		C1194.667,1708.403,1195.866,1708.376,1197.065,1708.349z"/>
	<path style="fill:#080608;" d="M1223.707,1685.93c0.698-1.513,2.002-2.013,3.542-2.12
		C1226.617,1685.432,1225.241,1685.812,1223.707,1685.93z"/>
	<path style="fill:#080608;" d="M1189.796,1708.467c0.713-1.469,2.006-1.965,3.515-2.097c0.051,0.686,0.104,1.373,0.156,2.06
		C1192.244,1708.443,1191.02,1708.455,1189.796,1708.467z"/>
	<path style="fill:#080608;" d="M1227.557,1689.737c-0.303,1.075-1.012,1.648-2.128,1.716
		C1226.138,1690.881,1226.847,1690.309,1227.557,1689.737z"/>
	<path style="fill:#080608;" d="M1213.803,1693.245c0.743-0.589,1.486-1.179,2.229-1.769
		C1215.606,1692.465,1214.872,1693.067,1213.803,1693.245z"/>
	<path style="fill:#080608;" d="M1200.699,1700.8c0.725-0.588,1.451-1.175,2.177-1.763
		C1202.15,1699.625,1201.424,1700.212,1200.699,1700.8z"/>
	<path style="fill:#080608;" d="M1236.859,1682.154c-0.281,1.05-0.965,1.619-2.046,1.714
		C1235.495,1683.297,1236.177,1682.726,1236.859,1682.154z"/>
	<path style="fill:#080608;" d="M1197.26,1702.796c0.603-0.541,1.206-1.082,1.808-1.621
		C1198.464,1701.717,1197.862,1702.256,1197.26,1702.796z"/>
	<path style="fill:#080608;" d="M1219.674,1689.537c0.666-0.611,1.332-1.223,1.997-1.835
		C1221.005,1688.314,1220.339,1688.926,1219.674,1689.537z"/>
	<path style="fill:#080608;" d="M1195.253,1704.618c0.661-0.601,1.323-1.202,1.985-1.802
		C1196.576,1703.417,1195.914,1704.017,1195.253,1704.618z"/>
	<path style="fill:#080608;" d="M1205.062,1702.971c-0.383,1.056-1.152,1.53-2.257,1.499
		C1203.557,1703.97,1204.31,1703.471,1205.062,1702.971z"/>
	<path style="fill:#080608;" d="M1193.323,1706.452c0.659-0.626,1.318-1.252,1.977-1.879
		C1194.641,1705.199,1193.982,1705.826,1193.323,1706.452z"/>
	<path style="fill:#080608;" d="M1210.268,1695.181c0.332-0.953,1.004-1.501,1.991-1.673
		C1211.595,1694.066,1210.932,1694.623,1210.268,1695.181z"/>
	<path style="fill:#080608;" d="M1227.188,1683.884c0.657-0.629,1.314-1.259,1.971-1.889
		C1228.502,1682.624,1227.845,1683.254,1227.188,1683.884z"/>
	<path style="fill:#080608;" d="M1233.138,1678.376c0.557-0.542,1.113-1.085,1.669-1.624
		C1234.25,1677.295,1233.693,1677.835,1233.138,1678.376z"/>
	<path style="fill:#080608;" d="M1199.322,1706.659c-0.339,1.041-1.063,1.57-2.149,1.619
		C1197.889,1707.738,1198.606,1707.199,1199.322,1706.659z"/>
	<path style="fill:#080608;" d="M1222.12,1693.676c-0.376,1.112-1.192,1.573-2.323,1.568
		C1220.267,1694.27,1221.024,1693.721,1222.12,1693.676z"/>
	<path style="fill:#080608;" d="M1238.921,1680.378c-0.286,1.105-1.01,1.701-2.132,1.834
		C1237.147,1681.192,1237.85,1680.572,1238.921,1680.378z"/>
	<path style="fill:#080608;" d="M1229.11,1682.042c0.661-0.609,1.322-1.218,1.982-1.827
		C1230.431,1680.824,1229.77,1681.433,1229.11,1682.042z"/>
	<path style="fill:#080608;" d="M1241.13,1678.561c-0.401,1.127-1.197,1.773-2.375,1.959
		C1239.128,1679.359,1239.924,1678.712,1241.13,1678.561z"/>
	<path style="fill:#080608;" d="M1231.097,1680.214c0.638-0.576,1.277-1.152,1.915-1.727
		C1232.373,1679.064,1231.735,1679.639,1231.097,1680.214z"/>
	<path style="fill:#080608;" d="M1229.636,1688.003c-0.307,1.124-1.07,1.704-2.203,1.839
		C1227.775,1688.76,1228.498,1688.133,1229.636,1688.003z"/>
	<path style="fill:#080608;" d="M1221.649,1687.722c0.652-0.575,1.303-1.15,1.955-1.724
		C1222.952,1686.573,1222.301,1687.147,1221.649,1687.722z"/>
	<path style="fill:#030102;" d="M851.459,549.819c14.945-1.777,31.502,0.381,47.889,2.071c24.604,2.539,48.828,8.147,69.796,22.199
		c14.274,9.565,23.268,22.896,25.146,40.841c1.949,18.627,3.897,37.202,3.575,55.955c-0.07,4.06,0.545,8.02,1.227,12.056
		c1.139,6.744,1.391,13.751-0.256,20.514c-0.994,4.081-1.42,8.002,0.018,11.973c1.104,3.047,0.812,6.188,0.809,9.303
		c-0.011,13.739-2.389,27.272-3.532,40.907c-1.096,13.079-3.05,25.954-5.948,38.713c-1.111,4.891-2.781,9.637-5.4,13.946
		c-2.981,4.904-6.666,8.865-12.604,10.485c-7.648,2.086-12.547,0.753-17.197-5.599c-2.578-3.522-4.872-7.266-7.61-10.656
		c-3.949-4.889-9.016-7.187-15.562-7.124c-17.805,0.171-35.414,2.61-53.111,4.016c-1.211,0.096-2.489,0.497-3.555,1.085
		c-18.322,10.099-37.601,6.963-56.727,3.759c-7.227-1.211-14.115-1.542-21.293,0.039c-7.599,1.674-15.529-0.07-23.246,2.271
		c-5.259,1.595-8.733,4.141-11.063,9.064c-2.574,5.437-3.561,11.299-5.348,16.939c-2.065,6.519-6.201,11.418-12.834,12.202
		c-9.283,1.098-18.51-0.614-27.239-4.236c-2.86-1.187-3.837-4.015-5.091-6.509c-6.8-13.516-10.817-28.006-13.416-42.755
		c-2.641-14.984-3.183-30.353-6.092-45.271c-2.816-14.443-3.427-29.045-4.946-43.554c-2.276-21.742-3.761-43.701-2.008-65.516
		c1.265-15.742,3.625-31.496,8.794-46.689c5.695-16.738,16.677-27.524,33.571-32.431c22.161-6.437,44.779-10.647,67.503-14.568
		C813.671,550.153,831.65,549.213,851.459,549.819z"/>
	<path style="fill:#020102;" d="M823.581,835.488c16.232,1.607,33.29-1.525,50.419-2.274c11.922-0.521,23.952-3.458,36.017-4.309
		c12.003-0.847,17.607,1.984,19.332,12.076c1.892,11.063-0.831,21.245-3.898,31.17c-3.382,10.942-8.382,21.371-15.625,30.72
		c-10.486,13.534-23.95,21.549-40.469,24.892c-22.887,4.631-43.193-2.641-61.844-14.813c-16.965-11.071-28.742-26.405-34.284-46.434
		c-3.939-14.236,2.298-25.483,16.715-29.05C800.806,834.777,811.708,836.11,823.581,835.488z"/>
	<path style="fill:#DAB392;" d="M847.824,553.984c25.562,1.401,46.609,1.181,67.328,5.037c14.523,2.703,28.605,6.986,41.922,13.362
		c20.234,9.689,31.677,25.35,33.427,48.312c2.263,29.683,4.249,59.335,3.509,89.13c-0.163,6.547,0.441,13.145,1.145,19.671
		c0.548,5.076-0.025,9.999-0.752,14.954c-2.587,17.639-5.146,35.283-7.849,52.905c-0.808,5.269-2.475,10.349-4.624,15.235
		c-1.265,2.876-2.832,5.6-5.247,7.709c-6.704,5.856-12.988,5.273-18.33-1.701c-0.761-0.994-1.546-1.99-2.156-3.077
		c-7.187-12.796-18.19-17.045-32.436-15.375c-13.666,1.602-27.419,2.474-41.142,3.561c-4.423,0.351-8.866,0.934-12.664,3.138
		c-13.235,7.684-27.514,6.319-41.178,3.385c-18.542-3.981-36.752-2.297-55.1-0.258c-7.028,0.781-11.949,4.951-15.164,11.283
		c-2.865,5.644-4.352,11.677-5.909,17.753c-1.946,7.593-5.884,10.476-13.622,9.971c-5.294-0.345-10.567-1.262-15.798-2.208
		c-4.243-0.768-5.853-4.427-7.425-7.844c-7.639-16.6-12.481-34.025-15.106-52.082c-2.382-16.386-5.542-32.711-6.901-49.183
		c-2.752-33.336-6.831-66.701-2.688-100.237c1.499-12.13,4.162-24.014,7.913-35.662c4.657-14.461,13.915-23.917,28.659-28.491
		c15.885-4.928,32.075-8.363,48.348-11.517C801.237,556.861,826.666,553.641,847.824,553.984z"/>
	<path style="fill:#DAB392;" d="M856.201,922.258c-33.406-0.078-65.454-23.161-75.103-53.103c-0.479-1.486-1.025-2.962-1.35-4.483
		c-2.608-12.198,0.908-17.492,13.078-20.101c5.25-1.126,10.561-1.545,15.873-1.423c22.603,0.521,45.027-2.08,67.467-4.021
		c11.152-0.965,22.023-4.843,33.456-3.429c1.86,0.23,3.777,0.067,5.615,0.388c4.535,0.793,7.352,3.384,7.549,8.174
		c0.115,2.81,0.23,5.669-0.141,8.442c-3.953,29.582-20.602,61.495-53.854,68.281C864.119,921.937,859.5,922.133,856.201,922.258z"/>
</g>
</svg>
