<?xml version="1.0" encoding="UTF-8"?>
<svg width="1512px" height="737px" viewBox="0 0 1512 737" version="1.1" xmlns="http://www.w3.org/2000/svg" xmlns:xlink="http://www.w3.org/1999/xlink">
    <!-- Generator: Sketch 59 (86127) - https://sketch.com -->
    <title>bg-shape-1</title>
    <desc>Created with Sketch.</desc>
    <defs>
        <linearGradient x1="58%" y1="108.000001%" x2="58.1%" y2="9.69999942%" id="linearGradient-1">
            <stop stop-color="#E8F7F0" stop-opacity="0" offset="0%"></stop>
            <stop stop-color="#D8F5E7" offset="100%"></stop>
        </linearGradient>
    </defs>
    <g id="Page-1" stroke="none" stroke-width="1" fill="none" fill-rule="evenodd">
        <g id="bg-shape-1" fill="url(#linearGradient-1)" fill-rule="nonzero">
            <path d="M0,377.439 L0,736.178 L1511.718,736.178 L1511.718,377.439 L1496.518,377.439 L1496.518,360.983 L1498.568,360.983 L1498.568,352.44 L1502.084,352.44 L1502.084,341.495 L1496.518,341.495 L1496.518,236.529 L1498.568,236.529 L1498.568,227.986 L1502.084,227.986 L1502.084,217.034 L1496.518,217.034 L1496.518,131.052 L1498.568,131.052 L1498.568,122.501 L1502.084,122.501 L1502.084,111.548 L1496.397,111.548 C1496.14907,102.113485 1495.35071,92.7014818 1494.006,83.36 C1494.006,83.36 1481.287,7.779 1478.834,7.748 C1476.382,7.732 1463.17,82.486 1463.17,82.486 C1461.70554,92.1113896 1460.82294,101.816342 1460.527,111.548 L1454.832,111.548 L1454.832,122.501 L1458.34,122.501 L1458.34,131.052 L1460.382,131.052 L1460.382,217.034 L1454.832,217.034 L1454.832,227.987 L1458.34,227.987 L1458.34,236.53 L1460.382,236.53 L1460.382,341.495 L1454.832,341.495 L1454.832,352.44 L1458.34,352.44 L1458.34,360.983 L1460.382,360.983 L1460.382,377.439 L1449.882,377.439 L1449.882,352.617 L1449.7,352.617 C1449.66122,351.646405 1449.57243,350.678455 1449.434,349.717 C1449.13121,347.933873 1448.66902,346.181513 1448.053,344.481 C1447.984,344.281 1447.893,344.081 1447.817,343.867 C1447.468,343.04 1447.073,342.135 1446.61,341.158 C1446.435,340.835 1446.261,340.465 1446.071,340.111 C1440.84,329.899 1427.962,312.962 1397.666,295.388 L1397.112,280.01 C1398.38231,279.53404 1399.22372,278.319548 1399.223,276.963 C1399.2294,275.525083 1398.2759,274.259474 1396.892,273.869 L1396.392,259.94 C1397.47249,259.77725 1398.24477,258.808983 1398.16317,257.719356 C1398.08157,256.629729 1397.17368,255.787291 1396.081,255.787291 C1394.98832,255.787291 1394.08043,256.629729 1393.99883,257.719356 C1393.91723,258.808983 1394.68951,259.77725 1395.77,259.94 L1395.261,273.861 C1393.91688,274.249595 1392.9744,275.457567 1392.92437,276.855835 C1392.87434,278.254103 1393.72809,279.526342 1395.041,280.01 L1394.479,295.529 C1367.82,311.029 1354.897,326.008 1348.534,336.339 L1348.511,336.386 C1346.48388,339.613919 1344.81628,343.054084 1343.538,346.645 C1343.469,346.873 1343.393,347.078 1343.338,347.259 L1343.308,347.354 C1343.224,347.661 1343.118,347.954 1343.042,348.228 C1343.019,348.362 1342.966,348.496 1342.951,348.628 L1342.951,348.652 C1342.91009,348.770445 1342.87669,348.891351 1342.851,349.014 C1342.839,349.067254 1342.82364,349.119693 1342.805,349.171 C1342.76299,349.309172 1342.73747,349.451831 1342.729,349.596 C1342.71224,349.633359 1342.70177,349.673229 1342.698,349.714 C1342.55939,350.675433 1342.4706,351.643393 1342.432,352.614 L1342.257,352.614 L1342.257,377.44 L1335.667,377.44 L1335.667,332.645 L1337.079,332.645 L1337.079,326.771 L1339.486,326.771 L1339.486,319.252 L1335.667,319.252 L1335.667,260.198 L1337.079,260.198 L1337.079,254.324 L1339.486,254.324 L1339.486,246.804 L1335.507,246.804 C1335.36055,240.325476 1334.84103,233.860767 1333.951,227.442 C1333.951,227.442 1325.204,175.522 1323.526,175.506 C1321.833,175.498 1312.759,226.843 1312.759,226.843 C1311.79073,233.456157 1311.22037,240.121481 1311.051,246.803 L1307.034,246.803 L1307.034,254.323 L1309.441,254.323 L1309.441,260.197 L1310.841,260.197 L1310.841,319.25 L1307.029,319.25 L1307.029,326.769 L1309.436,326.769 L1309.436,332.643 L1310.836,332.643 L1310.836,377.437 L1303.657,377.437 C1303.672,376.98 1303.718,376.523 1303.718,376.067 C1303.718,337.918 1267.051,306.762 1220.681,304.203 C1220.86606,303.681161 1220.97091,303.134278 1220.992,302.581 C1220.98803,300.792091 1220.026,299.142406 1218.471,298.258 L1217.15,268.038 C1218.22761,267.816591 1218.99755,266.863075 1218.987,265.763 C1218.96559,264.590029 1218.05829,263.624401 1216.88892,263.530043 C1215.71956,263.435685 1214.66917,264.243344 1214.45996,265.397706 C1214.25075,266.552067 1214.95089,267.676981 1216.079,267.999 L1213.93,298.171 C1212.30661,299.042994 1211.29444,300.73724 1211.296,302.58 C1211.31336,303.09194 1211.41053,303.598032 1211.584,304.08 C1183.953,304.804 1159.549,315.67 1143.809,332.252 L1143.809,309.606 L1143.634,309.606 C1143.59894,308.633504 1143.51014,307.663691 1143.368,306.701 C1143.06361,304.923338 1142.6011,303.176402 1141.986,301.481 C1141.918,301.268 1141.812,301.064 1141.736,300.859 C1141.402,300.032 1140.999,299.127 1140.521,298.159 C1140.362,297.82 1140.18,297.45 1139.99,297.096 C1134.751,286.868 1122.002,269.766 1091.524,252.144 L1090.992,237.255 C1092.29807,236.764917 1093.14478,235.49494 1093.09491,234.100839 C1093.04503,232.706738 1092.10975,231.500508 1090.772,231.105 L1090.264,217.168 C1091.28377,217.010628 1092.0336,216.128805 1092.025,215.097 C1092.05395,214.334866 1091.66386,213.617904 1091.00823,213.228234 C1090.35261,212.838565 1089.53639,212.838565 1088.88077,213.228234 C1088.22514,213.617904 1087.83505,214.334866 1087.864,215.097 C1087.85646,216.13564 1088.61385,217.021745 1089.641,217.176 L1089.141,231.105 C1087.79437,231.490126 1086.84818,232.697643 1086.7963,234.097301 C1086.74441,235.496958 1087.59858,236.77122 1088.913,237.255 L1088.357,252.517 C1061.789,267.973 1048.721,283.028 1042.366,293.327 L1042.336,293.398 C1040.31328,296.623068 1038.64588,300.057772 1037.363,303.642 C1037.295,303.862 1037.219,304.067 1037.173,304.248 L1037.143,304.342 C1037.043,304.649 1036.953,304.956 1036.877,305.216 C1036.847,305.358 1036.801,305.492 1036.771,305.625 L1036.771,305.649 C1036.72598,305.762729 1036.69541,305.881658 1036.68,306.003 C1036.66965,306.060088 1036.65183,306.115564 1036.627,306.168 C1036.59173,306.307709 1036.56633,306.449726 1036.551,306.593 L1036.529,306.703 C1036.362,307.664 1036.346,308.632 1036.27,309.608 L1036.088,309.608 L1036.088,345.434 C1023.423,331.639 1006.012,319.183 983.825,313.325 C983.825,313.325 984.379,311.955 983.696,308.475 C983.377698,306.799936 982.860014,305.168999 982.154,303.617 C979.354,297.554 973.225,293.255 960.044,288.255 L960.044,281.279 L956.612,281.279 L956.035,265.437 C957.106,265.091 957.865,264.468 957.865,263.721 C957.865,262.942 957.065,262.28 955.922,261.949 L955.489,249.823 C963.773492,251.827949 972.51958,250.229162 979.559,245.423 C986.624607,240.586174 991.478454,233.139748 993.052,224.723 C990.796978,228.084306 987.917925,230.981689 984.571,233.258 C970.197,243.014 950.888,238.825 941.471,223.912 C936.97823,216.776811 935.378681,208.195688 936.999,199.921 C929.722602,210.819177 929.517481,224.972534 936.475,236.077 C940.494644,242.522222 946.737444,247.270406 954.022,249.423 L953.293,261.832 C951.893,262.1 950.848,262.824 950.848,263.722 C950.848,264.572 951.782,265.289 953.088,265.58 L952.177,281.28 L948.657,281.28 L948.657,288.359 C936.607,292.959 930.533,296.989 927.503,302.359 C926.445985,304.264999 925.709817,306.331946 925.324,308.477 C924.624,311.957 925.187,313.327 925.187,313.327 C923.471,313.784 921.861,314.374 920.206,314.91 C906.406,292.296 881.543,267.801 845.772,258.36 C845.772,258.36 846.41,256.801 845.628,252.872 C845.266166,250.972911 844.682499,249.122901 843.889,247.36 C840.715,240.494 833.775,235.628 818.84,229.967 L818.84,222.067 L814.957,222.067 L814.319,204.13 C815.526,203.744 816.377,203.043 816.377,202.177 C816.377,201.311 815.477,200.563 814.183,200.177 L813.683,186.445 C823.069901,188.721386 832.981839,186.910097 840.957,181.461 C848.955626,175.992465 854.451669,167.56798 856.234,158.044 C853.673508,161.84216 850.41063,165.1159 846.621,167.689 C830.349,178.736 808.482,173.989 797.836,157.114 C792.738954,149.03576 790.921667,139.315063 792.756,129.941 C784.516859,142.279861 784.285109,158.305046 792.164,170.877 C796.718333,178.174675 803.78685,183.552453 812.035,185.995 L811.215,200.058 C809.615,200.349 808.436,201.176 808.436,202.176 C808.436,203.145 809.491,203.963 810.972,204.286 L809.932,222.065 L805.968,222.065 L805.968,230.088 C792.316,235.3 785.437,239.852 782.012,245.93 C780.816869,248.093086 779.980987,250.435919 779.537,252.867 C778.762,256.796 779.393,258.355 779.393,258.355 C741.701,268.308 716.029,294.984 702.757,318.535 C697.984667,316.430424 693.060774,314.68784 688.027,313.322 C688.027,313.322 688.581,311.952 687.898,308.472 C687.576378,306.798867 687.059161,305.169348 686.357,303.617 C683.547,297.554 677.42,293.255 664.238,288.255 L664.238,281.279 L660.806,281.279 L660.236,265.437 C661.299,265.091 662.058,264.468 662.058,263.721 C662.058,262.942 661.246,262.28 660.114,261.949 L659.681,249.823 C667.965492,251.827949 676.71158,250.229162 683.751,245.423 C690.816527,240.586096 695.67035,233.139706 697.244,224.723 C694.991026,228.085984 692.111616,230.983727 688.763,233.258 C674.382,243.014 655.073,238.825 645.663,223.912 C641.171279,216.774906 639.573849,208.192207 641.197,199.917 C633.920855,210.815256 633.715736,224.968463 640.673,236.073 C644.693112,242.51779 650.936306,247.265292 658.221,249.417 L657.5,261.826 C656.088,262.094 655.048,262.818 655.048,263.716 C655.048,264.566 655.982,265.283 657.288,265.574 L656.369,281.274 L652.857,281.274 L652.857,288.353 C640.807,292.953 634.725,296.983 631.703,302.353 C630.647045,304.260238 629.908397,306.32656 629.516,308.471 C628.825,311.951 629.387,313.321 629.387,313.321 C599.433,321.226 578.074,341.108 565.56,360.178 L565.56,310.117 L566.96,310.117 L566.96,304.251 L569.367,304.251 L569.367,296.724 L565.555,296.724 L565.555,237.671 L566.955,237.671 L566.955,231.797 L569.362,231.797 L569.362,224.277 L565.376,224.277 C565.234961,217.797906 564.712724,211.332729 563.812,204.915 C563.812,204.915 555.08,152.995 553.402,152.979 C551.709,152.963 542.635,204.3 542.635,204.3 C541.663409,210.918137 541.093034,217.588986 540.927,224.276 L536.91,224.276 L536.91,231.795 L539.317,231.795 L539.317,237.669 L540.717,237.669 L540.717,296.723 L536.905,296.723 L536.905,304.25 L539.312,304.25 L539.312,310.117 L540.712,310.117 L540.712,349.888 C536.65,339.495 528.32,324.479 511.426,309.088 L511.099,300.033 C511.735934,299.836881 512.161642,299.237297 512.136802,298.571316 C512.111963,297.905334 511.642774,297.339128 510.993,297.191 L510.742,290.144 C511.237427,290.067254 511.605835,289.645252 511.615,289.144 C511.635607,288.761843 511.443445,288.399558 511.115496,288.202282 C510.787547,288.005005 510.377453,288.005005 510.049504,288.202282 C509.721555,288.399558 509.529393,288.761843 509.55,289.144 C509.554346,289.649954 509.929627,290.075926 510.431,290.144 L510.18,297.183 C509.518816,297.320762 509.036757,297.8916 509.011655,298.566517 C508.986553,299.241434 509.424876,299.846504 510.074,300.033 L509.732,309.482 C501.671343,316.778024 494.61653,325.113391 488.753,334.269 L488.753,308.117 L488.616,308.117 C488.555,307.148 488.548,306.164 488.416,305.212 C488.188371,303.446583 487.83582,301.699534 487.361,299.984 C487.308,299.784 487.232,299.567 487.179,299.37 C486.913,298.535 486.602,297.63 486.245,296.661 C486.116,296.33 485.979,295.968 485.835,295.598 C481.811,285.378 472.023,268.292 448.66,250.662 L448.303,240.67 C449.39546,240.263068 450.104692,239.202425 450.06339,238.037368 C450.022089,236.872311 449.239533,235.864553 448.121,235.536 L447.703,223.891 C448.584974,223.73905 449.201578,222.934104 449.118611,222.04299 C449.035644,221.151876 448.281038,220.474597 447.386172,220.488079 C446.491305,220.501561 445.757445,221.201265 445.701361,222.094474 C445.645276,222.987683 446.285849,223.773688 447.172,223.899 L446.754,235.536 C445.628266,235.857045 444.837649,236.866938 444.796176,238.036821 C444.754704,239.206705 445.471825,240.270047 446.572,240.67 L446.2,251.063 C425.858,266.519 415.8,281.543 410.923,291.834 L410.908,291.881 C409.330677,295.179109 408.054816,298.613091 407.096,302.141 C407.035333,302.369 406.982333,302.573667 406.937,302.755 L406.922,302.849 C406.846,303.156 406.77,303.455 406.717,303.723 C406.702,303.857 406.656,303.998 406.641,304.132 L406.641,304.148 C406.60344,304.268503 406.577981,304.392448 406.565,304.518 C406.543387,304.567755 406.530531,304.620869 406.527,304.675 C406.494429,304.814639 406.474019,304.956837 406.466,305.1 L406.451,305.21 C406.314,306.163 406.299,307.147 406.246,308.115 L406.109,308.115 L406.109,350.615 C395.843,332.828 374.272,320.215 348.843,318.805 C348.990825,318.403456 349.072879,317.980688 349.086,317.553 C349.078361,316.185912 348.343911,314.926148 347.158,314.246 L346.133,291.058 C347.002069,290.884759 347.604,290.088594 347.533778,289.205213 C347.463556,288.321832 346.743402,287.630763 345.857878,287.596998 C344.972354,287.563232 344.201666,288.197455 344.064379,289.072924 C343.927092,289.948392 344.466647,290.788082 345.32,291.027 L343.665,314.176 C342.419218,314.843224 341.6406,316.140794 341.638,317.554 C341.658728,317.94853 341.735498,318.338102 341.866,318.711 C305.131,319.68 275.693,344.011 275.693,373.954 C275.693,375.119 275.739,376.277 275.822,377.434 L275.693,377.434 L275.693,331.275 L277.093,331.275 L277.093,325.401 L279.507,325.401 L279.507,317.882 L275.695,317.882 L275.695,258.817 L277.095,258.817 L277.095,252.951 L279.509,252.951 L279.509,245.427 L275.523,245.427 C275.380422,238.950898 274.860541,232.488608 273.966,226.073 C273.966,226.073 265.238,174.145 263.557,174.129 C261.876,174.113 252.79,225.458 252.79,225.458 C251.817402,232.07319 251.249679,238.741601 251.09,245.426 L247.066,245.426 L247.066,252.953 L249.473,252.953 L249.473,258.817 L250.873,258.817 L250.873,317.878 L247.061,317.878 L247.061,325.397 L249.468,325.397 L249.468,331.271 L250.868,331.271 L250.868,342.83 C235.804,325.949 211.962,314.579 184.718,313.083 C184.912151,312.560597 185.019895,312.010052 185.037,311.453 C185.033242,309.664034 184.071155,308.014253 182.516,307.13 L181.202,276.91 C182.425755,276.698875 183.270427,275.567176 183.12472,274.33392 C182.979013,273.100664 181.893865,272.196969 180.654602,272.276844 C179.41534,272.35672 178.455182,273.392243 178.469,274.634 C178.46573,275.663234 179.138706,276.572463 180.124,276.87 L177.968,307.043 C176.347058,307.917692 175.335594,309.610117 175.333,311.452 C175.355155,311.963478 175.452533,312.468904 175.622,312.952 C147.429,313.692 122.608,324.991 106.898,342.14 L106.898,333.74 L101.357,333.74 L101.357,228.766 L103.399,228.766 L103.399,220.231 L106.907,220.231 L106.907,209.271 L101.357,209.271 L101.357,123.304 L103.399,123.304 L103.399,114.753 L106.907,114.753 L106.907,103.8 L101.227,103.8 C100.989906,94.3673437 100.198541,84.9567797 98.857,75.617 C98.857,75.617 86.124,0.028 83.679,0.00499469418 C81.234,-0.018 68.015,74.743 68.015,74.743 C66.5534541,84.3685802 65.6735247,94.0735174 65.38,103.805 L59.67,103.805 L59.67,114.758 L63.186,114.758 L63.186,123.309 L65.228,123.309 L65.228,209.275 L59.67,209.275 L59.67,220.235 L63.186,220.235 L63.186,228.77 L65.228,228.77 L65.228,333.739 L59.67,333.739 L59.67,344.691 L63.186,344.691 L63.186,353.226 L65.228,353.226 L65.228,377.438 L0,377.439 Z M103.4,344.692 L104.584,344.692 C104.159,345.192 103.81,345.739 103.4,346.243 L103.4,344.692 Z" id="Path_42815"></path>
        </g>
    </g>
</svg>